{
.appVersion = "116";
DisplayStrings = (
"?S",
"DESIGN//DEV/space ARTS//CRAFTS\012THEN//NOW",
"//"
);
copyright = "copyright missing";
date = "2019-07-27 7:30:47 AM +0000";
designer = "Grady Ng";
familyName = Kombi;
featurePrefixes = (
{
automatic = 1;
code = "languagesystem DFLT dflt;\012";
name = Languagesystems;
}
);
fontMaster = (
{
ascender = 800;
capHeight = 700;
descender = -200;
id = "C54D4A6B-8A54-4623-BEBE-775047E05935";
weightValue = 400;
widthValue = 5;
xHeight = 500;
}
);
glyphs = (
{
glyphname = A;
layers = (
{
layerId = "C54D4A6B-8A54-4623-BEBE-775047E05935";
paths = (
{
closed = 1;
nodes = (
"473 -2 LINE",
"473 500 LINE",
"471 558 OFFCURVE",
"449 607.167 OFFCURVE",
"407 647.5 CURVE SMOOTH",
"365 687.833 OFFCURVE",
"314.667 708 OFFCURVE",
"256 708 CURVE SMOOTH",
"197.333 708 OFFCURVE",
"147.167 687.833 OFFCURVE",
"105.5 647.5 CURVE SMOOTH",
"63.833 607.167 OFFCURVE",
"42 558 OFFCURVE",
"40 500 CURVE SMOOTH",
"40 -2 LINE",
"175 -2 LINE",
"175 286 LINE",
"337 286 LINE",
"337 -2 LINE",
"473 -2 LINE"
);
},
{
closed = 1;
nodes = (
"175 421 LINE",
"175 493 LINE SMOOTH",
"175 515 OFFCURVE",
"183 534 OFFCURVE",
"199 550 CURVE SMOOTH",
"215 566 OFFCURVE",
"234 574 OFFCURVE",
"256 574 CURVE SMOOTH",
"278.667 574 OFFCURVE",
"297.833 566 OFFCURVE",
"313.5 550 CURVE SMOOTH",
"329.167 534 OFFCURVE",
"337 515 OFFCURVE",
"337 493 CURVE SMOOTH",
"337 421 LINE",
"175 421 LINE"
);
}
);
width = 513;
}
);
leftKerningGroup = exclam;
note = A;
rightKerningGroup = exclam;
unicode = 0041;
},
{
glyphname = B;
layers = (
{
layerId = "C54D4A6B-8A54-4623-BEBE-775047E05935";
paths = (
{
closed = 1;
nodes = (
"408.667 408.333 OFFCURVE",
"422 449.667 OFFCURVE",
"422 495 CURVE SMOOTH",
"422 553.667 OFFCURVE",
"401.167 603.667 OFFCURVE",
"359.5 645 CURVE SMOOTH",
"317.833 686.333 OFFCURVE",
"267.667 707 OFFCURVE",
"209 707 CURVE SMOOTH",
"40 707 LINE",
"40 -2 LINE",
"243 -2 LINE SMOOTH",
"301.667 -2 OFFCURVE",
"351.833 18.667 OFFCURVE",
"393.5 60 CURVE SMOOTH",
"435.167 101.333 OFFCURVE",
"456 151.333 OFFCURVE",
"456 210 CURVE SMOOTH",
"456 274.667 OFFCURVE",
"431.333 328.333 OFFCURVE",
"382 371 CURVE",
"382 371 LINE"
);
},
{
closed = 1;
nodes = (
"176 572 LINE",
"209 572 LINE SMOOTH",
"230.333 572 OFFCURVE",
"248.667 564.5 OFFCURVE",
"264 549.5 CURVE SMOOTH",
"279.333 534.5 OFFCURVE",
"287 516.333 OFFCURVE",
"287 495 CURVE SMOOTH",
"287 473.667 OFFCURVE",
"279.333 455.5 OFFCURVE",
"264 440.5 CURVE SMOOTH",
"248.667 425.5 OFFCURVE",
"230.333 418 OFFCURVE",
"209 418 CURVE SMOOTH",
"176 418 LINE",
"176 572 LINE"
);
},
{
closed = 1;
nodes = (
"243 133 LINE",
"176 133 LINE",
"176 283 LINE",
"269 283 LINE",
"284.333 277.667 OFFCURVE",
"296.833 268.333 OFFCURVE",
"306.5 255 CURVE SMOOTH",
"316.167 241.667 OFFCURVE",
"321 226.667 OFFCURVE",
"321 210 CURVE SMOOTH",
"321 188.667 OFFCURVE",
"313.333 170.5 OFFCURVE",
"298 155.5 CURVE SMOOTH",
"282.667 140.5 OFFCURVE",
"264.333 133 OFFCURVE",
"243 133 CURVE SMOOTH"
);
}
);
width = 496;
}
);
note = B;
rightKerningGroup = B;
unicode = 0042;
},
{
glyphname = C;
layers = (
{
layerId = "C54D4A6B-8A54-4623-BEBE-775047E05935";
paths = (
{
closed = 1;
nodes = (
"646 604 LINE",
"550 509 LINE",
"507.333 551.667 OFFCURVE",
"455.667 573 OFFCURVE",
"395 573 CURVE SMOOTH",
"334.333 573 OFFCURVE",
"282.333 551.667 OFFCURVE",
"239 509 CURVE SMOOTH",
"196.333 466.333 OFFCURVE",
"175 414.667 OFFCURVE",
"175 354 CURVE SMOOTH",
"175 293.333 OFFCURVE",
"196.333 241.667 OFFCURVE",
"239 199 CURVE SMOOTH",
"282.333 156.333 OFFCURVE",
"334.333 135 OFFCURVE",
"395 135 CURVE SMOOTH",
"455.667 135 OFFCURVE",
"507.333 156.333 OFFCURVE",
"550 199 CURVE",
"646 104 LINE",
"576.667 34.667 OFFCURVE",
"493 0 OFFCURVE",
"395 0 CURVE SMOOTH",
"297 0 OFFCURVE",
"213.333 34.667 OFFCURVE",
"144 104 CURVE SMOOTH",
"74.667 173.333 OFFCURVE",
"40 256.667 OFFCURVE",
"40 354 CURVE SMOOTH",
"40 451.333 OFFCURVE",
"74.667 534.667 OFFCURVE",
"144 604 CURVE SMOOTH",
"213.333 673.333 OFFCURVE",
"297 708 OFFCURVE",
"395 708 CURVE SMOOTH",
"493 708 OFFCURVE",
"576.667 673.333 OFFCURVE",
"646 604 CURVE"
);
}
);
width = 686;
}
);
note = C;
rightKerningGroup = C;
unicode = 0043;
},
{
glyphname = D;
layers = (
{
layerId = "C54D4A6B-8A54-4623-BEBE-775047E05935";
paths = (
{
closed = 1;
nodes = (
"174 710 LINE",
"40 710 LINE",
"40 3 LINE",
"174 3 LINE",
"174 2 LINE",
"272 2 OFFCURVE",
"355.833 36.667 OFFCURVE",
"425.5 106 CURVE SMOOTH",
"495.167 175.333 OFFCURVE",
"530 258.667 OFFCURVE",
"530 356 CURVE SMOOTH",
"530 454 OFFCURVE",
"495.167 537.5 OFFCURVE",
"425.5 606.5 CURVE SMOOTH",
"355.833 675.5 OFFCURVE",
"272 710 OFFCURVE",
"174 710 CURVE SMOOTH"
);
},
{
closed = 1;
nodes = (
"176 137 LINE",
"176 575 LINE",
"236 575 OFFCURVE",
"287.333 553.667 OFFCURVE",
"330 511 CURVE SMOOTH",
"372.667 468.333 OFFCURVE",
"394 416.667 OFFCURVE",
"394 356 CURVE SMOOTH",
"394 296 OFFCURVE",
"372.667 244.667 OFFCURVE",
"330 202 CURVE SMOOTH",
"287.333 159.333 OFFCURVE",
"236 137.667 OFFCURVE",
"176 137 CURVE SMOOTH"
);
}
);
width = 570;
}
);
leftKerningGroup = exclam;
note = D;
rightKerningGroup = D;
unicode = 0044;
},
{
glyphname = E;
layers = (
{
layerId = "C54D4A6B-8A54-4623-BEBE-775047E05935";
paths = (
{
closed = 1;
nodes = (
"473 575 LINE",
"473 710 LINE",
"41 710 LINE",
"41 706 LINE",
"40 706 LINE",
"40 -2 LINE",
"473 -2 LINE",
"473 133 LINE",
"176 133 LINE",
"176 289 LINE",
"473 289 LINE",
"473 424 LINE",
"176 424 LINE",
"176 575 LINE",
"473 575 LINE"
);
}
);
width = 513;
}
);
leftKerningGroup = exclam;
note = E;
rightKerningGroup = exclam;
unicode = 0045;
},
{
glyphname = F;
layers = (
{
layerId = "C54D4A6B-8A54-4623-BEBE-775047E05935";
paths = (
{
closed = 1;
nodes = (
"472 575 LINE",
"472 710 LINE",
"40 710 LINE",
"40 -2 LINE",
"175 -2 LINE",
"175 289 LINE",
"472 289 LINE",
"472 424 LINE",
"175 424 LINE",
"175 575 LINE",
"472 575 LINE"
);
}
);
width = 512;
}
);
note = F;
rightKerningGroup = F;
unicode = 0046;
},
{
glyphname = G;
layers = (
{
layerId = "C54D4A6B-8A54-4623-BEBE-775047E05935";
paths = (
{
closed = 1;
nodes = (
"744 424 LINE",
"398 424 LINE",
"398 289 LINE",
"605 289 LINE",
"591 244.333 OFFCURVE",
"564.667 207.667 OFFCURVE",
"526 179 CURVE SMOOTH",
"487.333 150.333 OFFCURVE",
"443.667 136 OFFCURVE",
"395 136 CURVE SMOOTH",
"334.333 136 OFFCURVE",
"282.667 157.333 OFFCURVE",
"240 200 CURVE SMOOTH",
"197.333 242.667 OFFCURVE",
"176 294.333 OFFCURVE",
"176 355 CURVE SMOOTH",
"176 415.667 OFFCURVE",
"197.333 467.333 OFFCURVE",
"240 510 CURVE SMOOTH",
"282.667 552.667 OFFCURVE",
"334.333 574 OFFCURVE",
"395 574 CURVE SMOOTH",
"455 574 OFFCURVE",
"507 552.667 OFFCURVE",
"551 510 CURVE",
"647 605 LINE",
"576.333 674.333 OFFCURVE",
"492.333 709 OFFCURVE",
"395 709 CURVE SMOOTH",
"297 709 OFFCURVE",
"213.333 674.333 OFFCURVE",
"144 605 CURVE SMOOTH",
"74.667 535.667 OFFCURVE",
"40 452.333 OFFCURVE",
"40 355 CURVE SMOOTH",
"40 257.667 OFFCURVE",
"74.667 174.333 OFFCURVE",
"144 105 CURVE SMOOTH",
"213.333 35.667 OFFCURVE",
"297 1 OFFCURVE",
"395 1 CURVE SMOOTH",
"493 1 OFFCURVE",
"576.833 35.667 OFFCURVE",
"646.5 105 CURVE SMOOTH",
"716.167 174.333 OFFCURVE",
"751 257.667 OFFCURVE",
"751 355 CURVE SMOOTH",
"751 375.667 OFFCURVE",
"748.667 398.667 OFFCURVE",
"744 424 CURVE"
);
}
);
width = 791;
}
);
leftKerningGroup = G;
note = G;
rightKerningGroup = D;
unicode = 0047;
},
{
glyphname = H;
layers = (
{
layerId = "C54D4A6B-8A54-4623-BEBE-775047E05935";
paths = (
{
closed = 1;
nodes = (
"338 709 LINE",
"338 424 LINE",
"176 424 LINE",
"176 709 LINE",
"40 709 LINE",
"40 0 LINE",
"176 0 LINE",
"176 289 LINE",
"338 289 LINE",
"338 0 LINE",
"473 0 LINE",
"473 709 LINE",
"338 709 LINE"
);
}
);
width = 513;
}
);
leftKerningGroup = exclam;
note = H;
rightKerningGroup = exclam;
unicode = 0048;
},
{
glyphname = I;
lastChange = "2024-07-09 06:22:11 +0000";
layers = (
{
layerId = "C54D4A6B-8A54-4623-BEBE-775047E05935";
paths = (
{
closed = 1;
nodes = (
"175 -2 LINE",
"40 -2 LINE",
"40 708 LINE",
"175 708 LINE",
"175 -2 LINE"
);
}
);
width = 215;
}
);
note = I;
rightKerningGroup = exclam;
unicode = 0049;
},
{
glyphname = J;
layers = (
{
layerId = "C54D4A6B-8A54-4623-BEBE-775047E05935";
paths = (
{
closed = 1;
nodes = (
"338 708 LINE",
"338 216 LINE SMOOTH",
"338 194 OFFCURVE",
"330 175.167 OFFCURVE",
"314 159.5 CURVE SMOOTH",
"298 143.833 OFFCURVE",
"279 136 OFFCURVE",
"257 136 CURVE SMOOTH",
"234.333 136 OFFCURVE",
"215 143.833 OFFCURVE",
"199 159.5 CURVE SMOOTH",
"183 175.167 OFFCURVE",
"175 194 OFFCURVE",
"175 216 CURVE",
"40 216 LINE",
"40 156.667 OFFCURVE",
"61.167 106 OFFCURVE",
"103.5 64 CURVE SMOOTH",
"145.833 22 OFFCURVE",
"197 1 OFFCURVE",
"257 1 CURVE SMOOTH",
"316.333 1 OFFCURVE",
"367.167 22 OFFCURVE",
"409.5 64 CURVE SMOOTH",
"451.833 106 OFFCURVE",
"473 156.667 OFFCURVE",
"473 216 CURVE SMOOTH",
"473 708 LINE",
"338 708 LINE"
);
}
);
width = 513;
}
);
leftKerningGroup = J;
note = J;
unicode = 004A;
},
{
glyphname = K;
layers = (
{
layerId = "C54D4A6B-8A54-4623-BEBE-775047E05935";
paths = (
{
closed = 1;
nodes = (
"388 501 LINE",
"388 710 LINE",
"253 710 LINE",
"253 501 LINE SMOOTH",
"253 480.333 OFFCURVE",
"245.5 462.333 OFFCURVE",
"230.5 447 CURVE SMOOTH",
"215.5 431.667 OFFCURVE",
"197.333 424 OFFCURVE",
"176 424 CURVE",
"176 708 LINE",
"40 708 LINE",
"40 -1 LINE",
"176 -1 LINE",
"176 288 LINE",
"197.333 288 OFFCURVE",
"215.5 280.5 OFFCURVE",
"230.5 265.5 CURVE SMOOTH",
"245.5 250.5 OFFCURVE",
"253 232.333 OFFCURVE",
"253 211 CURVE SMOOTH",
"253 -1 LINE",
"388 -1 LINE",
"388 211 LINE SMOOTH",
"388 266.333 OFFCURVE",
"369 314.667 OFFCURVE",
"331 356 CURVE",
"369 397.333 OFFCURVE",
"388 445.667 OFFCURVE",
"388 501 CURVE"
);
}
);
width = 428;
}
);
leftKerningGroup = exclam;
note = K;
rightKerningGroup = B;
unicode = 004B;
},
{
glyphname = L;
layers = (
{
layerId = "C54D4A6B-8A54-4623-BEBE-775047E05935";
paths = (
{
closed = 1;
nodes = (
"378 135 LINE",
"175 135 LINE",
"175 709 LINE",
"40 709 LINE",
"40 0 LINE",
"378 0 LINE",
"378 135 LINE"
);
}
);
width = 418;
}
);
note = L;
rightKerningGroup = L;
unicode = 004C;
},
{
glyphname = M;
layers = (
{
layerId = "C54D4A6B-8A54-4623-BEBE-775047E05935";
paths = (
{
closed = 1;
nodes = (
"581 706 LINE",
"445 706 LINE",
"310 465 LINE",
"175 706 LINE",
"40 706 LINE",
"40 -1 LINE",
"175 -1 LINE",
"175 429 LINE",
"310 189 LINE",
"446 430 LINE",
"446 -1 LINE",
"581 -1 LINE",
"581 706 LINE"
);
}
);
width = 621;
}
);
leftKerningGroup = exclam;
note = M;
rightKerningGroup = exclam;
unicode = 004D;
},
{
glyphname = N;
layers = (
{
layerId = "C54D4A6B-8A54-4623-BEBE-775047E05935";
paths = (
{
closed = 1;
nodes = (
"417 706 LINE",
"417 275 LINE",
"176 707 LINE",
"40 706 LINE",
"40 -1 LINE",
"175 -1 LINE",
"175 429 LINE",
"415 -1 LINE",
"417 0 LINE",
"552 -1 LINE",
"552 706 LINE",
"417 706 LINE"
);
}
);
width = 592;
}
);
leftKerningGroup = exclam;
note = N;
rightKerningGroup = exclam;
unicode = 004E;
},
{
glyphname = O;
layers = (
{
layerId = "C54D4A6B-8A54-4623-BEBE-775047E05935";
paths = (
{
closed = 1;
nodes = (
"74.667 172.333 OFFCURVE",
"40 255.667 OFFCURVE",
"40 353 CURVE SMOOTH",
"40 450.333 OFFCURVE",
"74.667 533.667 OFFCURVE",
"144 603 CURVE SMOOTH",
"213.333 672.333 OFFCURVE",
"297 707 OFFCURVE",
"395 707 CURVE SMOOTH",
"493 707 OFFCURVE",
"576.667 672.333 OFFCURVE",
"646 603 CURVE SMOOTH",
"715.333 533.667 OFFCURVE",
"750 450.333 OFFCURVE",
"750 353 CURVE SMOOTH",
"750 255.667 OFFCURVE",
"715.333 172.333 OFFCURVE",
"646 103 CURVE SMOOTH",
"576.667 33.667 OFFCURVE",
"493 -1 OFFCURVE",
"395 -1 CURVE SMOOTH",
"297 -1 OFFCURVE",
"213.333 33.667 OFFCURVE",
"144 103 CURVE",
"144 103 LINE"
);
},
{
closed = 1;
nodes = (
"196.5 465.333 OFFCURVE",
"175 413.667 OFFCURVE",
"175 353 CURVE SMOOTH",
"175 292.333 OFFCURVE",
"196.5 240.667 OFFCURVE",
"239.5 198 CURVE SMOOTH",
"282.5 155.333 OFFCURVE",
"334.333 134 OFFCURVE",
"395 134 CURVE SMOOTH",
"455.667 134 OFFCURVE",
"507.5 155.333 OFFCURVE",
"550.5 198 CURVE SMOOTH",
"593.5 240.667 OFFCURVE",
"615 292.333 OFFCURVE",
"615 353 CURVE SMOOTH",
"615 413.667 OFFCURVE",
"593.5 465.333 OFFCURVE",
"550.5 508 CURVE SMOOTH",
"507.5 550.667 OFFCURVE",
"455.667 572 OFFCURVE",
"395 572 CURVE SMOOTH",
"334.333 572 OFFCURVE",
"282.5 550.667 OFFCURVE",
"239.5 508 CURVE",
"239.5 508 LINE"
);
}
);
width = 790;
}
);
leftKerningGroup = G;
note = O;
rightKerningGroup = D;
unicode = 004F;
},
{
glyphname = P;
layers = (
{
layerId = "C54D4A6B-8A54-4623-BEBE-775047E05935";
paths = (
{
closed = 1;
nodes = (
"243 707 LINE",
"40 707 LINE",
"40 -2 LINE",
"175 -2 LINE",
"175 283 LINE",
"243 283 LINE SMOOTH",
"301.667 283 OFFCURVE",
"351.833 303.667 OFFCURVE",
"393.5 345 CURVE SMOOTH",
"435.167 386.333 OFFCURVE",
"456 436.333 OFFCURVE",
"456 495 CURVE SMOOTH",
"456 553.667 OFFCURVE",
"435.167 603.667 OFFCURVE",
"393.5 645 CURVE SMOOTH",
"351.833 686.333 OFFCURVE",
"301.667 707 OFFCURVE",
"243 707 CURVE SMOOTH"
);
},
{
closed = 1;
nodes = (
"243 418 LINE",
"175 418 LINE",
"175 572 LINE",
"243 572 LINE SMOOTH",
"264.333 572 OFFCURVE",
"282.5 564.5 OFFCURVE",
"297.5 549.5 CURVE SMOOTH",
"312.5 534.5 OFFCURVE",
"320 516.333 OFFCURVE",
"320 495 CURVE SMOOTH",
"320 474.333 OFFCURVE",
"312.333 456.333 OFFCURVE",
"297 441 CURVE SMOOTH",
"281.667 425.667 OFFCURVE",
"263.667 418 OFFCURVE",
"243 418 CURVE SMOOTH"
);
}
);
width = 496;
}
);
note = P;
rightKerningGroup = F;
unicode = 0050;
},
{
glyphname = Q;
layers = (
{
layerId = "C54D4A6B-8A54-4623-BEBE-775047E05935";
paths = (
{
closed = 1;
nodes = (
"806 97 LINE",
"711 191 LINE",
"737.667 243 OFFCURVE",
"751 297 OFFCURVE",
"751 353 CURVE SMOOTH",
"751 450.333 OFFCURVE",
"716.167 533.667 OFFCURVE",
"646.5 603 CURVE SMOOTH",
"576.833 672.333 OFFCURVE",
"493 707 OFFCURVE",
"395 707 CURVE SMOOTH",
"297 707 OFFCURVE",
"213.333 672.333 OFFCURVE",
"144 603 CURVE SMOOTH",
"74.667 533.667 OFFCURVE",
"40 450.333 OFFCURVE",
"40 353 CURVE SMOOTH",
"40 255.667 OFFCURVE",
"74.667 172.333 OFFCURVE",
"144 103 CURVE SMOOTH",
"213.333 33.667 OFFCURVE",
"297 -1 OFFCURVE",
"395 -1 CURVE SMOOTH",
"483.667 -1 OFFCURVE",
"561 27.667 OFFCURVE",
"627 85 CURVE",
"710 1 LINE",
"806 97 LINE"
);
},
{
closed = 1;
nodes = (
"334.333 134 OFFCURVE",
"282.5 155.333 OFFCURVE",
"239.5 198 CURVE SMOOTH",
"196.5 240.667 OFFCURVE",
"175 292.333 OFFCURVE",
"175 353 CURVE SMOOTH",
"175 413.667 OFFCURVE",
"196.5 465.333 OFFCURVE",
"239.5 508 CURVE SMOOTH",
"282.5 550.667 OFFCURVE",
"334.333 572 OFFCURVE",
"395 572 CURVE SMOOTH",
"455.667 572 OFFCURVE",
"507.5 550.667 OFFCURVE",
"550.5 508 CURVE SMOOTH",
"593.5 465.333 OFFCURVE",
"615 413.667 OFFCURVE",
"615 353 CURVE SMOOTH",
"615 333.667 OFFCURVE",
"612.333 314.333 OFFCURVE",
"607 295 CURVE",
"547 355 LINE",
"451 259 LINE",
"531 180 LINE",
"491 149.333 OFFCURVE",
"445.667 134 OFFCURVE",
"395 134 CURVE SMOOTH",
"395 134 LINE SMOOTH"
);
}
);
width = 806;
}
);
leftKerningGroup = G;
note = Q;
unicode = 0051;
},
{
glyphname = R;
layers = (
{
layerId = "C54D4A6B-8A54-4623-BEBE-775047E05935";
paths = (
{
closed = 1;
nodes = (
"456 264.667 OFFCURVE",
"437.667 312.333 OFFCURVE",
"401 353 CURVE",
"437.667 393.667 OFFCURVE",
"456 441 OFFCURVE",
"456 495 CURVE SMOOTH",
"456 553.667 OFFCURVE",
"435.167 603.667 OFFCURVE",
"393.5 645 CURVE SMOOTH",
"351.833 686.333 OFFCURVE",
"301.667 707 OFFCURVE",
"243 707 CURVE SMOOTH",
"40 707 LINE",
"40 -2 LINE",
"176 -2 LINE",
"176 283 LINE",
"265 283 LINE",
"281 278.333 OFFCURVE",
"294.333 269.333 OFFCURVE",
"305 256 CURVE SMOOTH",
"315.667 242.667 OFFCURVE",
"321 227.333 OFFCURVE",
"321 210 CURVE SMOOTH",
"321 -2 LINE",
"456 -2 LINE",
"456 210 LINE",
"456 210 LINE"
);
},
{
closed = 1;
nodes = (
"321 477.667 OFFCURVE",
"315.833 462.5 OFFCURVE",
"305.5 449.5 CURVE SMOOTH",
"295.167 436.5 OFFCURVE",
"281.667 427.333 OFFCURVE",
"265 422 CURVE",
"176 423 LINE",
"176 572 LINE",
"243 572 LINE SMOOTH",
"264.333 572 OFFCURVE",
"282.667 564.5 OFFCURVE",
"298 549.5 CURVE SMOOTH",
"313.333 534.5 OFFCURVE",
"321 516.333 OFFCURVE",
"321 495 CURVE",
"321 495 LINE"
);
}
);
width = 496;
}
);
leftKerningGroup = exclam;
note = R;
rightKerningGroup = exclam;
unicode = 0052;
},
{
glyphname = S;
lastChange = "2024-07-09 06:21:22 +0000";
layers = (
{
layerId = "C54D4A6B-8A54-4623-BEBE-775047E05935";
paths = (
{
closed = 1;
nodes = (
"181.667 457 OFFCURVE",
"156 487.667 OFFCURVE",
"156 519 CURVE SMOOTH",
"156 537.667 OFFCURVE",
"162 554 OFFCURVE",
"174 568 CURVE SMOOTH",
"186 582 OFFCURVE",
"205.667 589 OFFCURVE",
"233 589 CURVE SMOOTH",
"285 589 OFFCURVE",
"311 559.333 OFFCURVE",
"311 500 CURVE",
"439 500 LINE",
"439 530 OFFCURVE",
"432 561 OFFCURVE",
"418 593 CURVE SMOOTH",
"404 625 OFFCURVE",
"380.5 653.667 OFFCURVE",
"347.5 679 CURVE SMOOTH",
"314.5 704.333 OFFCURVE",
"261 717 OFFCURVE",
"218 717 CURVE SMOOTH",
"157 717 OFFCURVE",
"116 695 OFFCURVE",
"81 655 CURVE SMOOTH",
"51 621 OFFCURVE",
"30 584 OFFCURVE",
"30 525 CURVE SMOOTH",
"30 508 OFFCURVE",
"32 493 OFFCURVE",
"36 478 CURVE SMOOTH",
"40 463 OFFCURVE",
"44 450 OFFCURVE",
"48 439 CURVE SMOOTH",
"53 428 OFFCURVE",
"60 418 OFFCURVE",
"70 405 CURVE SMOOTH",
"81 390 OFFCURVE",
"106 363 OFFCURVE",
"119 352.5 CURVE SMOOTH",
"133 342 OFFCURVE",
"145.333 335.5 OFFCURVE",
"154 330.5 CURVE SMOOTH",
"162.667 325.5 OFFCURVE",
"175.833 318.167 OFFCURVE",
"193.5 308.5 CURVE SMOOTH",
"211.167 298.833 OFFCURVE",
"224.333 291.667 OFFCURVE",
"233 287 CURVE SMOOTH",
"285 257 OFFCURVE",
"311 226.333 OFFCURVE",
"311 195 CURVE SMOOTH",
"311 173.667 OFFCURVE",
"303.333 155.5 OFFCURVE",
"288 140.5 CURVE SMOOTH",
"272.667 125.5 OFFCURVE",
"254.333 118 OFFCURVE",
"233 118 CURVE SMOOTH",
"212.333 118 OFFCURVE",
"194.333 125.667 OFFCURVE",
"179 141 CURVE SMOOTH",
"163.667 156.333 OFFCURVE",
"156 174.333 OFFCURVE",
"156 195 CURVE SMOOTH",
"156 227 LINE",
"21 227 LINE",
"21 195 LINE SMOOTH",
"21 136 OFFCURVE",
"40.833 86.333 OFFCURVE",
"82.5 45 CURVE SMOOTH",
"124.167 3.667 OFFCURVE",
"174.333 -17 OFFCURVE",
"233 -17 CURVE SMOOTH",
"291.667 -17 OFFCURVE",
"341.833 3.667 OFFCURVE",
"383.5 45 CURVE SMOOTH",
"425.167 86.333 OFFCURVE",
"446 136.333 OFFCURVE",
"446 195 CURVE SMOOTH",
"446 206.333 OFFCURVE",
"444.833 217.333 OFFCURVE",
"442.5 228 CURVE SMOOTH",
"440.167 238.667 OFFCURVE",
"437.833 248.333 OFFCURVE",
"435.5 257 CURVE SMOOTH",
"433.167 265.667 OFFCURVE",
"428.667 274.667 OFFCURVE",
"422 284 CURVE SMOOTH",
"415.333 293.333 OFFCURVE",
"410 300.833 OFFCURVE",
"406 306.5 CURVE SMOOTH",
"402 312.167 OFFCURVE",
"394.667 319.5 OFFCURVE",
"384 328.5 CURVE SMOOTH",
"373.333 337.5 OFFCURVE",
"365.5 344 OFFCURVE",
"360.5 348 CURVE SMOOTH",
"355.5 352 OFFCURVE",
"345.833 358.667 OFFCURVE",
"331.5 368 CURVE SMOOTH",
"317.167 377.333 OFFCURVE",
"307.333 383.5 OFFCURVE",
"302 386.5 CURVE SMOOTH",
"296.667 389.5 OFFCURVE",
"285.167 396.167 OFFCURVE",
"267.5 406.5 CURVE SMOOTH",
"249.833 416.833 OFFCURVE",
"238.333 423.667 OFFCURVE",
"233 427 CURVE",
"233 427 LINE"
);
}
);
width = 466;
}
);
leftKerningGroup = S;
note = S;
rightKerningGroup = S;
unicode = 0053;
},
{
glyphname = T;
layers = (
{
layerId = "C54D4A6B-8A54-4623-BEBE-775047E05935";
paths = (
{
closed = 1;
nodes = (
"409 708 LINE",
"9 707 LINE",
"9 572 LINE",
"145 572 LINE",
"145 -2 LINE",
"280 -2 LINE",
"280 572 LINE",
"409 572 LINE",
"409 708 LINE"
);
}
);
width = 419;
}
);
note = T;
rightKerningGroup = T;
unicode = 0054;
},
{
glyphname = U;
layers = (
{
layerId = "C54D4A6B-8A54-4623-BEBE-775047E05935";
paths = (
{
closed = 1;
nodes = (
"338 707 LINE",
"338 189 LINE SMOOTH",
"338 167 OFFCURVE",
"330.167 148 OFFCURVE",
"314.5 132 CURVE SMOOTH",
"298.833 116 OFFCURVE",
"279.667 108 OFFCURVE",
"257 108 CURVE SMOOTH",
"234.333 108 OFFCURVE",
"215.167 116 OFFCURVE",
"199.5 132 CURVE SMOOTH",
"183.833 148 OFFCURVE",
"176 167 OFFCURVE",
"176 189 CURVE SMOOTH",
"176 707 LINE",
"40 707 LINE",
"40 189 LINE SMOOTH",
"40 129.667 OFFCURVE",
"61.167 78.833 OFFCURVE",
"103.5 36.5 CURVE SMOOTH",
"145.833 -5.833 OFFCURVE",
"197 -27 OFFCURVE",
"257 -27 CURVE SMOOTH",
"316.333 -27 OFFCURVE",
"367.167 -5.833 OFFCURVE",
"409.5 36.5 CURVE SMOOTH",
"451.833 78.833 OFFCURVE",
"473 129.667 OFFCURVE",
"473 189 CURVE SMOOTH",
"473 707 LINE",
"338 707 LINE"
);
}
);
width = 513;
}
);
leftKerningGroup = exclam;
note = U;
rightKerningGroup = exclam;
unicode = 0055;
},
{
glyphname = V;
layers = (
{
layerId = "C54D4A6B-8A54-4623-BEBE-775047E05935";
paths = (
{
closed = 1;
nodes = (
"550 708 LINE",
"414 708 LINE",
"295 258 LINE",
"176 708 LINE",
"40 708 LINE",
"227 2 LINE",
"363 2 LINE",
"550 708 LINE"
);
}
);
width = 590;
}
);
leftKerningGroup = V;
note = V;
rightKerningGroup = V;
unicode = 0056;
},
{
glyphname = W;
layers = (
{
layerId = "C54D4A6B-8A54-4623-BEBE-775047E05935";
paths = (
{
closed = 1;
nodes = (
"695 708 LINE",
"560 708 LINE",
"500 369 LINE",
"440 708 LINE",
"295 709 LINE",
"235 370 LINE",
"175 708 LINE",
"40 708 LINE",
"165 1 LINE",
"305 2 LINE",
"367 352 LINE",
"429 1 LINE",
"570 1 LINE",
"695 708 LINE"
);
}
);
width = 735;
}
);
leftKerningGroup = V;
note = W;
rightKerningGroup = V;
unicode = 0057;
},
{
glyphname = X;
layers = (
{
layerId = "C54D4A6B-8A54-4623-BEBE-775047E05935";
paths = (
{
closed = 1;
nodes = (
"410 498 LINE",
"410 707 LINE",
"274 707 LINE",
"275 498 LINE SMOOTH",
"275 482 OFFCURVE",
"270.333 467.333 OFFCURVE",
"261 454 CURVE SMOOTH",
"251.667 440.667 OFFCURVE",
"239.667 431.333 OFFCURVE",
"225 426 CURVE",
"210.333 431.333 OFFCURVE",
"198.333 440.667 OFFCURVE",
"189 454 CURVE SMOOTH",
"179.667 467.333 OFFCURVE",
"175 482 OFFCURVE",
"175 498 CURVE SMOOTH",
"176 707 LINE",
"40 707 LINE",
"40 498 LINE SMOOTH",
"40 443.333 OFFCURVE",
"58.667 395.667 OFFCURVE",
"96 355 CURVE",
"58.667 314.333 OFFCURVE",
"40 266.667 OFFCURVE",
"40 212 CURVE SMOOTH",
"40 3 LINE",
"176 3 LINE",
"175 212 LINE",
"175 228 OFFCURVE",
"179.667 242.5 OFFCURVE",
"189 255.5 CURVE SMOOTH",
"198.333 268.5 OFFCURVE",
"210.333 278 OFFCURVE",
"225 284 CURVE",
"239.667 278 OFFCURVE",
"251.667 268.5 OFFCURVE",
"261 255.5 CURVE SMOOTH",
"270.333 242.5 OFFCURVE",
"274.667 228 OFFCURVE",
"274 212 CURVE",
"274 3 LINE",
"410 3 LINE",
"410 212 LINE SMOOTH",
"410 266.667 OFFCURVE",
"391.333 314.333 OFFCURVE",
"354 355 CURVE",
"391.333 395.667 OFFCURVE",
"410 443.333 OFFCURVE",
"410 498 CURVE"
);
}
);
width = 450;
}
);
leftKerningGroup = exclam;
note = X;
rightKerningGroup = B;
unicode = 0058;
},
{
glyphname = Y;
layers = (
{
layerId = "C54D4A6B-8A54-4623-BEBE-775047E05935";
paths = (
{
closed = 1;
nodes = (
"330 709 LINE",
"330 500 LINE SMOOTH",
"330 478.667 OFFCURVE",
"322.5 460.5 OFFCURVE",
"307.5 445.5 CURVE SMOOTH",
"292.5 430.5 OFFCURVE",
"274.333 423 OFFCURVE",
"253 423 CURVE SMOOTH",
"231.667 423 OFFCURVE",
"213.333 430.5 OFFCURVE",
"198 445.5 CURVE SMOOTH",
"182.667 460.5 OFFCURVE",
"175 478.667 OFFCURVE",
"175 500 CURVE SMOOTH",
"176 709 LINE",
"40 709 LINE",
"40 500 LINE SMOOTH",
"40 454 OFFCURVE",
"53.5 412.5 OFFCURVE",
"80.5 375.5 CURVE SMOOTH",
"107.5 338.5 OFFCURVE",
"142.333 313 OFFCURVE",
"185 299 CURVE",
"185 1 LINE",
"321 1 LINE",
"321 299 LINE",
"363.667 313 OFFCURVE",
"398.5 338.5 OFFCURVE",
"425.5 375.5 CURVE SMOOTH",
"452.5 412.5 OFFCURVE",
"466 454 OFFCURVE",
"466 500 CURVE SMOOTH",
"466 709 LINE",
"330 709 LINE"
);
}
);
width = 506;
}
);
note = Y;
rightKerningGroup = F;
unicode = 0059;
},
{
glyphname = Z;
layers = (
{
layerId = "C54D4A6B-8A54-4623-BEBE-775047E05935";
paths = (
{
closed = 1;
nodes = (
"472 576 LINE",
"472 711 LINE",
"40 711 LINE",
"40 576 LINE",
"313 576 LINE",
"40 131 LINE",
"40 -2 LINE",
"472 -2 LINE",
"472 133 LINE",
"198 133 LINE",
"472 576 LINE"
);
}
);
width = 512;
}
);
note = Z;
unicode = 005A;
},
{
glyphname = a;
layers = (
{
layerId = "C54D4A6B-8A54-4623-BEBE-775047E05935";
paths = (
{
closed = 1;
nodes = (
"409 498 LINE",
"409 472 LINE",
"373.667 491.333 OFFCURVE",
"334.333 501 OFFCURVE",
"291 501 CURVE SMOOTH",
"221.667 501 OFFCURVE",
"162.5 476.5 OFFCURVE",
"113.5 427.5 CURVE SMOOTH",
"64.5 378.5 OFFCURVE",
"40 319.667 OFFCURVE",
"40 251 CURVE SMOOTH",
"40 182.333 OFFCURVE",
"64.667 123.333 OFFCURVE",
"114 74 CURVE SMOOTH",
"163.333 24.667 OFFCURVE",
"222.333 0 OFFCURVE",
"291 0 CURVE SMOOTH",
"333 0 OFFCURVE",
"372.333 10 OFFCURVE",
"409 30 CURVE",
"409 -2 LINE",
"545 -2 LINE",
"545 498 LINE",
"409 498 LINE"
);
},
{
closed = 1;
nodes = (
"176 282.333 OFFCURVE",
"187.333 309.333 OFFCURVE",
"210 332 CURVE SMOOTH",
"232.667 354.667 OFFCURVE",
"259.667 366 OFFCURVE",
"291 366 CURVE SMOOTH",
"322.333 366 OFFCURVE",
"349.333 354.667 OFFCURVE",
"372 332 CURVE SMOOTH",
"394.667 309.333 OFFCURVE",
"406 282.333 OFFCURVE",
"406 251 CURVE SMOOTH",
"406 219 OFFCURVE",
"394.667 191.833 OFFCURVE",
"372 169.5 CURVE SMOOTH",
"349.333 147.167 OFFCURVE",
"322.333 136 OFFCURVE",
"291 136 CURVE SMOOTH",
"259.667 136 OFFCURVE",
"232.667 147.167 OFFCURVE",
"210 169.5 CURVE SMOOTH",
"187.333 191.833 OFFCURVE",
"176 219 OFFCURVE",
"176 251 CURVE",
"176 251 LINE"
);
}
);
width = 585;
}
);
leftKerningGroup = a;
note = a;
rightKerningGroup = a;
unicode = 0061;
},
{
glyphname = b;
layers = (
{
layerId = "C54D4A6B-8A54-4623-BEBE-775047E05935";
paths = (
{
closed = 1;
nodes = (
"249.667 498 OFFCURVE",
"211.333 488.667 OFFCURVE",
"176 470 CURVE",
"176 750 LINE",
"40 750 LINE",
"40 -2 LINE",
"176 -2 LINE",
"176 25 LINE",
"211.333 6.333 OFFCURVE",
"249.667 -3 OFFCURVE",
"291 -3 CURVE SMOOTH",
"359.667 -3 OFFCURVE",
"418.5 21.5 OFFCURVE",
"467.5 70.5 CURVE SMOOTH",
"516.5 119.5 OFFCURVE",
"541 178.667 OFFCURVE",
"541 248 CURVE SMOOTH",
"541 317.333 OFFCURVE",
"516.5 376.333 OFFCURVE",
"467.5 425 CURVE SMOOTH",
"418.5 473.667 OFFCURVE",
"359.667 498 OFFCURVE",
"291 498 CURVE SMOOTH",
"291 498 LINE SMOOTH"
);
},
{
closed = 1;
nodes = (
"259 133 OFFCURVE",
"231.833 144.167 OFFCURVE",
"209.5 166.5 CURVE SMOOTH",
"187.167 188.833 OFFCURVE",
"176 216 OFFCURVE",
"176 248 CURVE SMOOTH",
"176 279.333 OFFCURVE",
"187.167 306.333 OFFCURVE",
"209.5 329 CURVE SMOOTH",
"231.833 351.667 OFFCURVE",
"259 363 OFFCURVE",
"291 363 CURVE SMOOTH",
"322.333 363 OFFCURVE",
"349.167 351.667 OFFCURVE",
"371.5 329 CURVE SMOOTH",
"393.833 306.333 OFFCURVE",
"405 279.333 OFFCURVE",
"405 248 CURVE SMOOTH",
"405 216 OFFCURVE",
"393.833 188.833 OFFCURVE",
"371.5 166.5 CURVE SMOOTH",
"349.167 144.167 OFFCURVE",
"322.333 133 OFFCURVE",
"291 133 CURVE SMOOTH",
"291 133 LINE SMOOTH"
);
}
);
width = 581;
}
);
leftKerningGroup = b;
note = b;
rightKerningGroup = b;
unicode = 0062;
},
{
glyphname = c;
layers = (
{
layerId = "C54D4A6B-8A54-4623-BEBE-775047E05935";
paths = (
{
closed = 1;
nodes = (
"468 426 LINE",
"372 330 LINE",
"349.333 352.667 OFFCURVE",
"322.167 363.833 OFFCURVE",
"290.5 363.5 CURVE SMOOTH",
"258.833 363.167 OFFCURVE",
"231.667 352 OFFCURVE",
"209 330 CURVE SMOOTH",
"186.333 307.333 OFFCURVE",
"175 280.167 OFFCURVE",
"175 248.5 CURVE SMOOTH",
"175 216.833 OFFCURVE",
"186.333 189.667 OFFCURVE",
"209 167 CURVE SMOOTH",
"231 145 OFFCURVE",
"258 134 OFFCURVE",
"290 134 CURVE SMOOTH",
"322 134 OFFCURVE",
"349.333 145.333 OFFCURVE",
"372 168 CURVE",
"468 72 LINE",
"418.667 22.667 OFFCURVE",
"359.333 -2 OFFCURVE",
"290 -2 CURVE SMOOTH",
"220.667 -2 OFFCURVE",
"161.667 22.333 OFFCURVE",
"113 71 CURVE SMOOTH",
"64.333 119.667 OFFCURVE",
"40 178.667 OFFCURVE",
"40 248 CURVE SMOOTH",
"40 317.333 OFFCURVE",
"64.333 376.333 OFFCURVE",
"113 425 CURVE SMOOTH",
"161.667 473.667 OFFCURVE",
"220.833 498.167 OFFCURVE",
"290.5 498.5 CURVE SMOOTH",
"360.167 498.833 OFFCURVE",
"419.333 474.667 OFFCURVE",
"468 426 CURVE"
);
}
);
width = 468;
}
);
leftKerningGroup = a;
note = c;
rightKerningGroup = c;
unicode = 0063;
},
{
glyphname = d;
layers = (
{
layerId = "C54D4A6B-8A54-4623-BEBE-775047E05935";
paths = (
{
closed = 1;
nodes = (
"406 746 LINE",
"406 471 LINE",
"370 489.667 OFFCURVE",
"331.667 499 OFFCURVE",
"291 499 CURVE SMOOTH",
"221.667 499 OFFCURVE",
"162.5 474.5 OFFCURVE",
"113.5 425.5 CURVE SMOOTH",
"64.5 376.5 OFFCURVE",
"40 317.333 OFFCURVE",
"40 248 CURVE SMOOTH",
"40 178.667 OFFCURVE",
"64.5 119.5 OFFCURVE",
"113.5 70.5 CURVE SMOOTH",
"162.5 21.5 OFFCURVE",
"221.667 -3 OFFCURVE",
"291 -3 CURVE SMOOTH",
"331.667 -3 OFFCURVE",
"370 6.333 OFFCURVE",
"406 25 CURVE",
"406 -2 LINE",
"542 -2 LINE",
"542 746 LINE",
"406 746 LINE"
);
},
{
closed = 1;
nodes = (
"259 133 OFFCURVE",
"231.833 144.333 OFFCURVE",
"209.5 167 CURVE SMOOTH",
"187.167 189.667 OFFCURVE",
"176 216.667 OFFCURVE",
"176 248 CURVE SMOOTH",
"176 279.333 OFFCURVE",
"187.167 306.333 OFFCURVE",
"209.5 329 CURVE SMOOTH",
"231.833 351.667 OFFCURVE",
"259 363 OFFCURVE",
"291 363 CURVE SMOOTH",
"322.333 363 OFFCURVE",
"349.333 351.667 OFFCURVE",
"372 329 CURVE SMOOTH",
"394.667 306.333 OFFCURVE",
"406 279.333 OFFCURVE",
"406 248 CURVE SMOOTH",
"406 216.667 OFFCURVE",
"394.667 189.667 OFFCURVE",
"372 167 CURVE SMOOTH",
"349.333 144.333 OFFCURVE",
"322.333 133 OFFCURVE",
"291 133 CURVE SMOOTH",
"291 133 LINE SMOOTH"
);
}
);
width = 582;
}
);
leftKerningGroup = a;
note = d;
rightKerningGroup = d;
unicode = 0064;
},
{
glyphname = e;
layers = (
{
layerId = "C54D4A6B-8A54-4623-BEBE-775047E05935";
paths = (
{
closed = 1;
nodes = (
"175 204 LINE",
"528 204 LINE",
"530.667 217.333 OFFCURVE",
"532 232.333 OFFCURVE",
"532 249 CURVE SMOOTH",
"532 318.333 OFFCURVE",
"507.5 377.333 OFFCURVE",
"458.5 426 CURVE SMOOTH",
"409.5 474.667 OFFCURVE",
"350.333 499 OFFCURVE",
"281 499 CURVE SMOOTH",
"211.667 499 OFFCURVE",
"152.5 474.5 OFFCURVE",
"103.5 425.5 CURVE SMOOTH",
"54.5 376.5 OFFCURVE",
"30 317.667 OFFCURVE",
"30 249 CURVE SMOOTH",
"30 180.333 OFFCURVE",
"54.667 121.333 OFFCURVE",
"104 72 CURVE SMOOTH",
"153.333 22.667 OFFCURVE",
"212.333 -2 OFFCURVE",
"281 -2 CURVE SMOOTH",
"333.667 -2 OFFCURVE",
"381.333 12.833 OFFCURVE",
"424 42.5 CURVE SMOOTH",
"466.667 72.167 OFFCURVE",
"497 111 OFFCURVE",
"515 159 CURVE",
"353 159 LINE",
"332.333 142.333 OFFCURVE",
"308.333 134 OFFCURVE",
"281 134 CURVE SMOOTH",
"257.667 134 OFFCURVE",
"236.5 140.5 OFFCURVE",
"217.5 153.5 CURVE SMOOTH",
"198.5 166.5 OFFCURVE",
"184.333 183.333 OFFCURVE",
"175 204 CURVE"
);
},
{
closed = 1;
nodes = (
"184.333 314.667 OFFCURVE",
"198.5 331.5 OFFCURVE",
"217.5 344.5 CURVE SMOOTH",
"236.5 357.5 OFFCURVE",
"257.667 364 OFFCURVE",
"281 364 CURVE SMOOTH",
"304.333 364 OFFCURVE",
"325.667 357.5 OFFCURVE",
"345 344.5 CURVE SMOOTH",
"364.333 331.5 OFFCURVE",
"378.333 314.667 OFFCURVE",
"387 294 CURVE",
"175 294 LINE",
"175 294 LINE"
);
}
);
width = 562;
}
);
leftKerningGroup = a;
note = e;
rightKerningGroup = b;
unicode = 0065;
},
{
glyphname = f;
layers = (
{
layerId = "C54D4A6B-8A54-4623-BEBE-775047E05935";
paths = (
{
closed = 1;
nodes = (
"281 558 LINE",
"417 558 LINE",
"417 609.333 OFFCURVE",
"398.667 653.5 OFFCURVE",
"362 690.5 CURVE SMOOTH",
"325.333 727.5 OFFCURVE",
"281 746 OFFCURVE",
"229 746 CURVE SMOOTH",
"177 746 OFFCURVE",
"132.5 727.5 OFFCURVE",
"95.5 690.5 CURVE SMOOTH",
"58.5 653.5 OFFCURVE",
"40 609.333 OFFCURVE",
"40 558 CURVE SMOOTH",
"40 -3 LINE",
"176 -3 LINE",
"176 308 LINE",
"279 308 LINE",
"279 443 LINE",
"176 443 LINE",
"176 558 LINE SMOOTH",
"176 572.667 OFFCURVE",
"181.167 585 OFFCURVE",
"191.5 595 CURVE SMOOTH",
"201.833 605 OFFCURVE",
"214.333 610 OFFCURVE",
"229 610 CURVE SMOOTH",
"243.667 610 OFFCURVE",
"256 605 OFFCURVE",
"266 595 CURVE SMOOTH",
"276 585 OFFCURVE",
"281 572.667 OFFCURVE",
"281 558 CURVE"
);
}
);
width = 417;
}
);
note = f;
rightKerningGroup = f;
unicode = 0066;
},
{
glyphname = g;
layers = (
{
layerId = "C54D4A6B-8A54-4623-BEBE-775047E05935";
paths = (
{
closed = 1;
nodes = (
"543 -27 LINE",
"543 498 LINE",
"407 498 LINE",
"407 471 LINE",
"369.667 489 OFFCURVE",
"331.333 498 OFFCURVE",
"292 498 CURVE SMOOTH",
"222.667 498 OFFCURVE",
"163.5 473.667 OFFCURVE",
"114.5 425 CURVE SMOOTH",
"65.5 376.333 OFFCURVE",
"41 317.333 OFFCURVE",
"41 248 CURVE SMOOTH",
"41 178.667 OFFCURVE",
"65.5 119.5 OFFCURVE",
"114.5 70.5 CURVE SMOOTH",
"163.5 21.5 OFFCURVE",
"222.667 -3 OFFCURVE",
"292 -3 CURVE SMOOTH",
"333.333 -3 OFFCURVE",
"371.667 6.333 OFFCURVE",
"407 25 CURVE",
"407 -27 LINE SMOOTH",
"407 -59 OFFCURVE",
"395.667 -86.167 OFFCURVE",
"373 -108.5 CURVE SMOOTH",
"350.333 -130.833 OFFCURVE",
"323.333 -142 OFFCURVE",
"292 -142 CURVE SMOOTH",
"260 -142 OFFCURVE",
"232.667 -130.833 OFFCURVE",
"210 -108.5 CURVE SMOOTH",
"187.333 -86.167 OFFCURVE",
"176 -59 OFFCURVE",
"176 -27 CURVE",
"40 -27 LINE",
"40 -95.667 OFFCURVE",
"64.667 -154.5 OFFCURVE",
"114 -203.5 CURVE SMOOTH",
"163.333 -252.5 OFFCURVE",
"222.667 -277 OFFCURVE",
"292 -277 CURVE SMOOTH",
"361.333 -277 OFFCURVE",
"420.5 -252.5 OFFCURVE",
"469.5 -203.5 CURVE SMOOTH",
"518.5 -154.5 OFFCURVE",
"543 -95.667 OFFCURVE",
"543 -27 CURVE"
);
},
{
closed = 1;
nodes = (
"260 133 OFFCURVE",
"232.833 144.167 OFFCURVE",
"210.5 166.5 CURVE SMOOTH",
"188.167 188.833 OFFCURVE",
"177 216 OFFCURVE",
"177 248 CURVE SMOOTH",
"177 279.333 OFFCURVE",
"188.167 306.333 OFFCURVE",
"210.5 329 CURVE SMOOTH",
"232.833 351.667 OFFCURVE",
"260 363 OFFCURVE",
"292 363 CURVE SMOOTH",
"323.333 363 OFFCURVE",
"350.333 351.667 OFFCURVE",
"373 329 CURVE SMOOTH",
"395.667 306.333 OFFCURVE",
"407 279.333 OFFCURVE",
"407 248 CURVE SMOOTH",
"407 216 OFFCURVE",
"395.667 188.833 OFFCURVE",
"373 166.5 CURVE SMOOTH",
"350.333 144.167 OFFCURVE",
"323.333 133 OFFCURVE",
"292 133 CURVE SMOOTH",
"292 133 LINE SMOOTH"
);
}
);
width = 583;
}
);
leftKerningGroup = a;
note = g;
unicode = 0067;
},
{
glyphname = h;
layers = (
{
layerId = "C54D4A6B-8A54-4623-BEBE-775047E05935";
paths = (
{
closed = 1;
nodes = (
"208 500 OFFCURVE",
"190.667 497.667 OFFCURVE",
"176 493 CURVE",
"176 747 LINE",
"40 747 LINE",
"40 -2 LINE",
"176 -2 LINE",
"176 312 LINE SMOOTH",
"176 326.667 OFFCURVE",
"181 339.167 OFFCURVE",
"191 349.5 CURVE SMOOTH",
"201 359.833 OFFCURVE",
"213.333 365 OFFCURVE",
"228 365 CURVE SMOOTH",
"242.667 365 OFFCURVE",
"255.167 359.833 OFFCURVE",
"265.5 349.5 CURVE SMOOTH",
"275.833 339.167 OFFCURVE",
"281 326.667 OFFCURVE",
"281 312 CURVE SMOOTH",
"281 -2 LINE",
"417 -2 LINE",
"417 312 LINE SMOOTH",
"417 364 OFFCURVE",
"398.5 408.333 OFFCURVE",
"361.5 445 CURVE SMOOTH",
"324.5 481.667 OFFCURVE",
"280 500 OFFCURVE",
"228 500 CURVE SMOOTH",
"228 500 LINE SMOOTH"
);
}
);
width = 457;
}
);
leftKerningGroup = b;
note = h;
rightKerningGroup = a;
unicode = 0068;
},
{
glyphname = i;
layers = (
{
layerId = "C54D4A6B-8A54-4623-BEBE-775047E05935";
paths = (
{
closed = 1;
nodes = (
"40 694 LINE",
"40 558 LINE",
"176 558 LINE",
"176 694 LINE",
"40 694 LINE"
);
},
{
closed = 1;
nodes = (
"40 -2 LINE",
"176 -2 LINE",
"176 494 LINE",
"40 494 LINE",
"40 -2 LINE"
);
}
);
width = 216;
}
);
leftKerningGroup = i;
note = i;
rightKerningGroup = a;
unicode = 0069;
},
{
glyphname = j;
layers = (
{
layerId = "C54D4A6B-8A54-4623-BEBE-775047E05935";
paths = (
{
closed = 1;
nodes = (
"66 707 LINE",
"66 572 LINE",
"202 572 LINE",
"202 707 LINE",
"66 707 LINE"
);
},
{
closed = 1;
nodes = (
"66 -69.667 OFFCURVE",
"60.833 -82.167 OFFCURVE",
"50.5 -92.5 CURVE SMOOTH",
"40.167 -102.833 OFFCURVE",
"27.667 -108 OFFCURVE",
"13 -108 CURVE SMOOTH",
"-1.667 -108 OFFCURVE",
"-14 -102.833 OFFCURVE",
"-24 -92.5 CURVE SMOOTH",
"-34 -82.167 OFFCURVE",
"-39 -69.667 OFFCURVE",
"-39 -55 CURVE",
"-175 -55 LINE",
"-175 -107 OFFCURVE",
"-156.667 -151.333 OFFCURVE",
"-120 -188 CURVE SMOOTH",
"-83.333 -224.667 OFFCURVE",
"-39 -243 OFFCURVE",
"13 -243 CURVE SMOOTH",
"65 -243 OFFCURVE",
"109.5 -224.667 OFFCURVE",
"146.5 -188 CURVE SMOOTH",
"183.5 -151.333 OFFCURVE",
"202 -107 OFFCURVE",
"202 -55 CURVE SMOOTH",
"202 499 LINE",
"66 499 LINE",
"66 -55 LINE",
"66 -55 LINE"
);
}
);
width = 242;
}
);
leftKerningGroup = j;
note = j;
unicode = 006A;
},
{
glyphname = k;
layers = (
{
layerId = "C54D4A6B-8A54-4623-BEBE-775047E05935";
paths = (
{
closed = 1;
nodes = (
"368 360 LINE",
"368 496 LINE",
"232 496 LINE",
"232 370 LINE SMOOTH",
"232 355.333 OFFCURVE",
"227 343 OFFCURVE",
"217 333 CURVE SMOOTH",
"207 323 OFFCURVE",
"194.667 318 OFFCURVE",
"180 318 CURVE",
"180 317 LINE",
"176 318 LINE",
"176 747 LINE",
"40 747 LINE",
"40 -2 LINE",
"176 -2 LINE",
"176 182 LINE",
"190.667 182 OFFCURVE",
"203 176.833 OFFCURVE",
"213 166.5 CURVE SMOOTH",
"223 156.167 OFFCURVE",
"228 143.667 OFFCURVE",
"228 129 CURVE SMOOTH",
"228 -2 LINE",
"364 -2 LINE",
"364 140 LINE",
"363 140 LINE",
"361 179.333 OFFCURVE",
"347.333 215 OFFCURVE",
"322 247 CURVE",
"349.333 279 OFFCURVE",
"364.667 316.667 OFFCURVE",
"368 360 CURVE"
);
}
);
width = 408;
}
);
leftKerningGroup = b;
note = k;
rightKerningGroup = k;
unicode = 006B;
},
{
glyphname = l;
layers = (
{
layerId = "C54D4A6B-8A54-4623-BEBE-775047E05935";
paths = (
{
closed = 1;
nodes = (
"176 -4 LINE",
"40 -4 LINE",
"40 745 LINE",
"176 745 LINE",
"176 -4 LINE"
);
}
);
width = 216;
}
);
leftKerningGroup = b;
note = l;
rightKerningGroup = d;
unicode = 006C;
},
{
glyphname = m;
layers = (
{
layerId = "C54D4A6B-8A54-4623-BEBE-775047E05935";
paths = (
{
closed = 1;
nodes = (
"425.333 502 OFFCURVE",
"385 487.333 OFFCURVE",
"349 458 CURVE",
"314.333 487.333 OFFCURVE",
"274.333 502 OFFCURVE",
"229 502 CURVE SMOOTH",
"177 502 OFFCURVE",
"132.5 483.5 OFFCURVE",
"95.5 446.5 CURVE SMOOTH",
"58.5 409.5 OFFCURVE",
"40 365 OFFCURVE",
"40 313 CURVE SMOOTH",
"40 0 LINE",
"176 0 LINE",
"176 313 LINE SMOOTH",
"176 327.667 OFFCURVE",
"181.167 340.167 OFFCURVE",
"191.5 350.5 CURVE SMOOTH",
"201.833 360.833 OFFCURVE",
"214.333 366 OFFCURVE",
"229 366 CURVE SMOOTH",
"243.667 366 OFFCURVE",
"256 360.833 OFFCURVE",
"266 350.5 CURVE SMOOTH",
"276 340.167 OFFCURVE",
"281 327.667 OFFCURVE",
"281 313 CURVE SMOOTH",
"281 0 LINE",
"417 0 LINE",
"417 313 LINE SMOOTH",
"417 327.667 OFFCURVE",
"422.167 340.167 OFFCURVE",
"432.5 350.5 CURVE SMOOTH",
"442.833 360.833 OFFCURVE",
"455.333 366 OFFCURVE",
"470 366 CURVE SMOOTH",
"484.667 366 OFFCURVE",
"497 360.833 OFFCURVE",
"507 350.5 CURVE SMOOTH",
"517 340.167 OFFCURVE",
"522 327.667 OFFCURVE",
"522 313 CURVE SMOOTH",
"522 0 LINE",
"658 0 LINE",
"658 313 LINE SMOOTH",
"658 365 OFFCURVE",
"639.667 409.5 OFFCURVE",
"603 446.5 CURVE SMOOTH",
"566.333 483.5 OFFCURVE",
"522 502 OFFCURVE",
"470 502 CURVE SMOOTH",
"470 502 LINE SMOOTH"
);
}
);
width = 698;
}
);
leftKerningGroup = i;
note = m;
rightKerningGroup = a;
unicode = 006D;
},
{
glyphname = n;
layers = (
{
layerId = "C54D4A6B-8A54-4623-BEBE-775047E05935";
paths = (
{
closed = 1;
nodes = (
"40 311 LINE",
"40 -3 LINE",
"176 -3 LINE",
"176 311 LINE SMOOTH",
"176 325.667 OFFCURVE",
"181.167 338.167 OFFCURVE",
"191.5 348.5 CURVE SMOOTH",
"201.833 358.833 OFFCURVE",
"214.333 364 OFFCURVE",
"229 364 CURVE SMOOTH",
"243.667 364 OFFCURVE",
"256 358.833 OFFCURVE",
"266 348.5 CURVE SMOOTH",
"276 338.167 OFFCURVE",
"281 325.667 OFFCURVE",
"281 311 CURVE SMOOTH",
"281 -3 LINE",
"417 -3 LINE",
"417 311 LINE SMOOTH",
"417 363 OFFCURVE",
"398.667 407.333 OFFCURVE",
"362 444 CURVE SMOOTH",
"325.333 480.667 OFFCURVE",
"281 499 OFFCURVE",
"229 499 CURVE SMOOTH",
"177 499 OFFCURVE",
"132.5 480.667 OFFCURVE",
"95.5 444 CURVE SMOOTH",
"58.5 407.333 OFFCURVE",
"40 363 OFFCURVE",
"40 311 CURVE"
);
}
);
width = 457;
}
);
leftKerningGroup = i;
note = n;
rightKerningGroup = a;
unicode = 006E;
},
{
glyphname = o;
layers = (
{
layerId = "C54D4A6B-8A54-4623-BEBE-775047E05935";
paths = (
{
closed = 1;
nodes = (
"350.333 500 OFFCURVE",
"409.5 475.5 OFFCURVE",
"458.5 426.5 CURVE SMOOTH",
"507.5 377.5 OFFCURVE",
"532 318.333 OFFCURVE",
"532 249 CURVE SMOOTH",
"532 179.667 OFFCURVE",
"507.5 120.667 OFFCURVE",
"458.5 72 CURVE SMOOTH",
"409.5 23.333 OFFCURVE",
"350.333 -1 OFFCURVE",
"281 -1 CURVE SMOOTH",
"211.667 -1 OFFCURVE",
"152.5 23.5 OFFCURVE",
"103.5 72.5 CURVE SMOOTH",
"54.5 121.5 OFFCURVE",
"30 180.333 OFFCURVE",
"30 249 CURVE SMOOTH",
"30 317.667 OFFCURVE",
"54.667 376.667 OFFCURVE",
"104 426 CURVE SMOOTH",
"153.333 475.333 OFFCURVE",
"212.333 500 OFFCURVE",
"281 500 CURVE",
"281 500 LINE"
);
},
{
closed = 1;
nodes = (
"249.667 364 OFFCURVE",
"222.667 352.833 OFFCURVE",
"200 330.5 CURVE SMOOTH",
"177.333 308.167 OFFCURVE",
"166 281 OFFCURVE",
"166 249 CURVE SMOOTH",
"166 217.667 OFFCURVE",
"177.333 190.667 OFFCURVE",
"200 168 CURVE SMOOTH",
"222.667 145.333 OFFCURVE",
"249.667 134 OFFCURVE",
"281 134 CURVE SMOOTH",
"313 134 OFFCURVE",
"340.167 145.333 OFFCURVE",
"362.5 168 CURVE SMOOTH",
"384.833 190.667 OFFCURVE",
"396 217.667 OFFCURVE",
"396 249 CURVE SMOOTH",
"396 281 OFFCURVE",
"384.833 308.167 OFFCURVE",
"362.5 330.5 CURVE SMOOTH",
"340.167 352.833 OFFCURVE",
"313 364 OFFCURVE",
"281 364 CURVE SMOOTH",
"281 364 LINE SMOOTH"
);
}
);
width = 562;
}
);
leftKerningGroup = a;
note = o;
rightKerningGroup = b;
unicode = 006F;
},
{
glyphname = p;
layers = (
{
layerId = "C54D4A6B-8A54-4623-BEBE-775047E05935";
paths = (
{
closed = 1;
nodes = (
"249.667 498 OFFCURVE",
"211.333 488.667 OFFCURVE",
"176 470 CURVE",
"176 497 LINE",
"40 497 LINE",
"40 -250 LINE",
"176 -250 LINE",
"176 25 LINE",
"211.333 6.333 OFFCURVE",
"249.667 -3 OFFCURVE",
"291 -3 CURVE SMOOTH",
"359.667 -3 OFFCURVE",
"418.5 21.5 OFFCURVE",
"467.5 70.5 CURVE SMOOTH",
"516.5 119.5 OFFCURVE",
"541 178.333 OFFCURVE",
"541 247 CURVE SMOOTH",
"541 316.333 OFFCURVE",
"516.667 375.5 OFFCURVE",
"468 424.5 CURVE SMOOTH",
"419.333 473.5 OFFCURVE",
"360.333 498 OFFCURVE",
"291 498 CURVE SMOOTH",
"291 498 LINE SMOOTH"
);
},
{
closed = 1;
nodes = (
"259 132 OFFCURVE",
"231.833 143.333 OFFCURVE",
"209.5 166 CURVE SMOOTH",
"187.167 188.667 OFFCURVE",
"176 215.667 OFFCURVE",
"176 247 CURVE SMOOTH",
"176 279 OFFCURVE",
"187.167 306.333 OFFCURVE",
"209.5 329 CURVE SMOOTH",
"231.833 351.667 OFFCURVE",
"259 363 OFFCURVE",
"291 363 CURVE SMOOTH",
"322.333 363 OFFCURVE",
"349.167 351.667 OFFCURVE",
"371.5 329 CURVE SMOOTH",
"393.833 306.333 OFFCURVE",
"405 279 OFFCURVE",
"405 247 CURVE SMOOTH",
"405 215.667 OFFCURVE",
"393.833 188.667 OFFCURVE",
"371.5 166 CURVE SMOOTH",
"349.167 143.333 OFFCURVE",
"322.333 132 OFFCURVE",
"291 132 CURVE SMOOTH",
"291 132 LINE SMOOTH"
);
}
);
width = 581;
}
);
leftKerningGroup = b;
note = p;
rightKerningGroup = b;
unicode = 0070;
},
{
glyphname = q;
layers = (
{
layerId = "C54D4A6B-8A54-4623-BEBE-775047E05935";
paths = (
{
closed = 1;
nodes = (
"543 -250 LINE",
"542 501 LINE",
"406 501 LINE",
"406 473 LINE",
"370 491.667 OFFCURVE",
"331.667 501 OFFCURVE",
"291 501 CURVE SMOOTH",
"221.667 501 OFFCURVE",
"162.5 476.667 OFFCURVE",
"113.5 428 CURVE SMOOTH",
"64.5 379.333 OFFCURVE",
"40 320.333 OFFCURVE",
"40 251 CURVE SMOOTH",
"40 181.667 OFFCURVE",
"64.5 122.5 OFFCURVE",
"113.5 73.5 CURVE SMOOTH",
"162.5 24.5 OFFCURVE",
"221.667 0 OFFCURVE",
"291 0 CURVE SMOOTH",
"332.333 0 OFFCURVE",
"370.667 9.333 OFFCURVE",
"406 28 CURVE",
"407 -250 LINE",
"543 -250 LINE"
);
},
{
closed = 1;
nodes = (
"259 136 OFFCURVE",
"231.833 147.167 OFFCURVE",
"209.5 169.5 CURVE SMOOTH",
"187.167 191.833 OFFCURVE",
"176 219 OFFCURVE",
"176 251 CURVE SMOOTH",
"176 282.333 OFFCURVE",
"187.167 309.333 OFFCURVE",
"209.5 332 CURVE SMOOTH",
"231.833 354.667 OFFCURVE",
"259 366 OFFCURVE",
"291 366 CURVE SMOOTH",
"322.333 366 OFFCURVE",
"349.333 354.667 OFFCURVE",
"372 332 CURVE SMOOTH",
"394.667 309.333 OFFCURVE",
"406 282.333 OFFCURVE",
"406 251 CURVE SMOOTH",
"406 219 OFFCURVE",
"394.667 191.833 OFFCURVE",
"372 169.5 CURVE SMOOTH",
"349.333 147.167 OFFCURVE",
"322.333 136 OFFCURVE",
"291 136 CURVE SMOOTH",
"291 136 LINE SMOOTH"
);
}
);
width = 583;
}
);
leftKerningGroup = a;
note = q;
rightKerningGroup = d;
unicode = 0071;
},
{
glyphname = r;
layers = (
{
layerId = "C54D4A6B-8A54-4623-BEBE-775047E05935";
paths = (
{
closed = 1;
nodes = (
"175.333 498 OFFCURVE",
"130.833 480 OFFCURVE",
"94.5 444 CURVE SMOOTH",
"58.167 408 OFFCURVE",
"40 364.667 OFFCURVE",
"40 314 CURVE SMOOTH",
"40 -1 LINE",
"176 -1 LINE",
"176 310 LINE SMOOTH",
"176 324.667 OFFCURVE",
"181 337.167 OFFCURVE",
"191 347.5 CURVE SMOOTH",
"201 357.833 OFFCURVE",
"213.333 363 OFFCURVE",
"228 363 CURVE SMOOTH",
"242.667 363 OFFCURVE",
"255.167 357.833 OFFCURVE",
"265.5 347.5 CURVE SMOOTH",
"275.833 337.167 OFFCURVE",
"281 324.667 OFFCURVE",
"281 310 CURVE",
"417 310 LINE",
"417 362 OFFCURVE",
"398.5 406.333 OFFCURVE",
"361.5 443 CURVE SMOOTH",
"324.5 479.667 OFFCURVE",
"280 498 OFFCURVE",
"228 498 CURVE SMOOTH",
"228 498 LINE SMOOTH"
);
}
);
width = 417;
}
);
leftKerningGroup = r;
note = r;
rightKerningGroup = r;
unicode = 0072;
},
{
glyphname = s;
layers = (
{
layerId = "C54D4A6B-8A54-4623-BEBE-775047E05935";
paths = (
{
closed = 1;
nodes = (
"426.333 105 OFFCURVE",
"407.333 64 OFFCURVE",
"370 30 CURVE SMOOTH",
"332.667 -4 OFFCURVE",
"289 -21 OFFCURVE",
"239 -21 CURVE SMOOTH",
"183.667 -21 OFFCURVE",
"136.667 -2.833 OFFCURVE",
"98 33.5 CURVE SMOOTH",
"59.333 69.833 OFFCURVE",
"40 124.333 OFFCURVE",
"40 197 CURVE",
"183 197 LINE",
"183 166.333 OFFCURVE",
"188 146 OFFCURVE",
"198 136 CURVE SMOOTH",
"208 126 OFFCURVE",
"221.667 121 OFFCURVE",
"239 121 CURVE SMOOTH",
"257.667 121 OFFCURVE",
"270.833 129.833 OFFCURVE",
"278.5 147.5 CURVE SMOOTH",
"286.167 165.167 OFFCURVE",
"281.333 177.333 OFFCURVE",
"264 184 CURVE SMOOTH",
"139 233 LINE SMOOTH",
"69.667 260.333 OFFCURVE",
"42 304.667 OFFCURVE",
"56 366 CURVE SMOOTH",
"64.667 404 OFFCURVE",
"84.833 434.833 OFFCURVE",
"116.5 458.5 CURVE SMOOTH",
"148.167 482.167 OFFCURVE",
"188.333 494 OFFCURVE",
"237 494 CURVE SMOOTH",
"286.333 494 OFFCURVE",
"329.833 477.333 OFFCURVE",
"367.5 444 CURVE SMOOTH",
"405.167 410.667 OFFCURVE",
"424 372.333 OFFCURVE",
"424 329 CURVE",
"287 329 LINE",
"287.667 341 OFFCURVE",
"283.333 351.167 OFFCURVE",
"274 359.5 CURVE SMOOTH",
"264.667 367.833 OFFCURVE",
"254 372 OFFCURVE",
"242 372 CURVE SMOOTH",
"220 372 OFFCURVE",
"206.667 365 OFFCURVE",
"202 351 CURVE SMOOTH",
"198 338.333 OFFCURVE",
"203.667 329.333 OFFCURVE",
"219 324 CURVE",
"342 273 LINE SMOOTH",
"395.333 251 OFFCURVE",
"423.667 211 OFFCURVE",
"427 153 CURVE",
"427 153 LINE"
);
}
);
width = 457;
}
);
leftKerningGroup = s;
note = s;
rightKerningGroup = s;
unicode = 0073;
},
{
glyphname = t;
layers = (
{
layerId = "C54D4A6B-8A54-4623-BEBE-775047E05935";
paths = (
{
closed = 1;
nodes = (
"231 135.667 OFFCURVE",
"228.333 129.5 OFFCURVE",
"223 124.5 CURVE SMOOTH",
"217.667 119.5 OFFCURVE",
"211.333 117 OFFCURVE",
"204 117 CURVE SMOOTH",
"196.667 117 OFFCURVE",
"190.5 119.667 OFFCURVE",
"185.5 125 CURVE SMOOTH",
"180.5 130.333 OFFCURVE",
"178 136.667 OFFCURVE",
"178 144 CURVE SMOOTH",
"178 164 LINE",
"177 359 LINE",
"314 359 LINE",
"314 495 LINE",
"177 495 LINE",
"176 744 LINE",
"40 743 LINE",
"42 143 LINE SMOOTH",
"42 98.333 OFFCURVE",
"57.833 60.167 OFFCURVE",
"89.5 28.5 CURVE SMOOTH",
"121.167 -3.167 OFFCURVE",
"159.333 -19 OFFCURVE",
"204 -19 CURVE SMOOTH",
"248.667 -19 OFFCURVE",
"287 -3.167 OFFCURVE",
"319 28.5 CURVE SMOOTH",
"351 60.167 OFFCURVE",
"367 98.333 OFFCURVE",
"367 143 CURVE",
"231 143 LINE",
"231 143 LINE"
);
}
);
width = 367;
}
);
leftKerningGroup = b;
note = t;
unicode = 0074;
},
{
glyphname = u;
layers = (
{
layerId = "C54D4A6B-8A54-4623-BEBE-775047E05935";
paths = (
{
closed = 1;
nodes = (
"418 164 LINE",
"417 498 LINE",
"281 498 LINE",
"282 169 LINE SMOOTH",
"282 154.333 OFFCURVE",
"276.833 142 OFFCURVE",
"266.5 132 CURVE SMOOTH",
"256.167 122 OFFCURVE",
"243.667 117 OFFCURVE",
"229 117 CURVE SMOOTH",
"214.333 117 OFFCURVE",
"202 122 OFFCURVE",
"192 132 CURVE SMOOTH",
"182 142 OFFCURVE",
"177 154.333 OFFCURVE",
"177 169 CURVE",
"176 497 LINE",
"40 497 LINE",
"41 169 LINE SMOOTH",
"41 117 OFFCURVE",
"59.333 72.667 OFFCURVE",
"96 36 CURVE SMOOTH",
"132.667 -0.667 OFFCURVE",
"177 -19 OFFCURVE",
"229 -19 CURVE SMOOTH",
"279.667 -19 OFFCURVE",
"323.5 -1.167 OFFCURVE",
"360.5 34.5 CURVE SMOOTH",
"397.5 70.167 OFFCURVE",
"416.667 113.333 OFFCURVE",
"418 164 CURVE"
);
}
);
width = 458;
}
);
leftKerningGroup = i;
note = u;
rightKerningGroup = a;
unicode = 0075;
},
{
glyphname = v;
layers = (
{
layerId = "C54D4A6B-8A54-4623-BEBE-775047E05935";
paths = (
{
closed = 1;
nodes = (
"419 498 LINE",
"284 498 LINE",
"218 255 LINE",
"155 498 LINE",
"20 498 LINE",
"150 -2 LINE",
"285 -2 LINE",
"285 -1 LINE",
"419 498 LINE"
);
}
);
width = 439;
}
);
leftKerningGroup = v;
note = v;
rightKerningGroup = v;
unicode = 0076;
},
{
glyphname = w;
layers = (
{
layerId = "C54D4A6B-8A54-4623-BEBE-775047E05935";
paths = (
{
closed = 1;
nodes = (
"664 496 LINE",
"529 496 LINE",
"462 253 LINE",
"399 496 LINE",
"264 496 LINE",
"198 253 LINE",
"136 496 LINE",
"0 496 LINE",
"130 -4 LINE",
"266 -4 LINE",
"331 241 LINE",
"395 -4 LINE",
"530 -3 LINE",
"664 496 LINE"
);
}
);
width = 664;
}
);
leftKerningGroup = v;
note = w;
rightKerningGroup = v;
unicode = 0077;
},
{
glyphname = x;
layers = (
{
layerId = "C54D4A6B-8A54-4623-BEBE-775047E05935";
paths = (
{
closed = 1;
nodes = (
"418 174.333 OFFCURVE",
"402 215.667 OFFCURVE",
"370 251 CURVE",
"402 287 OFFCURVE",
"418 328.667 OFFCURVE",
"418 376 CURVE SMOOTH",
"418 497 LINE",
"282 496 LINE",
"282 376 LINE SMOOTH",
"282 361.333 OFFCURVE",
"276.833 348.833 OFFCURVE",
"266.5 338.5 CURVE SMOOTH",
"256.167 328.167 OFFCURVE",
"243.667 323 OFFCURVE",
"229 323 CURVE SMOOTH",
"214.333 323 OFFCURVE",
"202 328.167 OFFCURVE",
"192 338.5 CURVE SMOOTH",
"182 348.833 OFFCURVE",
"177 361.333 OFFCURVE",
"177 376 CURVE",
"176 497 LINE",
"40 496 LINE",
"41 376 LINE SMOOTH",
"41 328 OFFCURVE",
"57 286.333 OFFCURVE",
"89 251 CURVE",
"57 215.667 OFFCURVE",
"41 174.333 OFFCURVE",
"41 127 CURVE",
"109 127 LINE",
"41 126 LINE",
"41 -3 LINE",
"177 -2 LINE",
"177 127 LINE SMOOTH",
"177 141.667 OFFCURVE",
"182 154 OFFCURVE",
"192 164 CURVE SMOOTH",
"202 174 OFFCURVE",
"214.333 179 OFFCURVE",
"229 179 CURVE SMOOTH",
"243.667 179 OFFCURVE",
"256.167 174 OFFCURVE",
"266.5 164 CURVE SMOOTH",
"276.833 154 OFFCURVE",
"282 141.667 OFFCURVE",
"282 127 CURVE",
"350 127 LINE",
"282 126 LINE",
"282 -3 LINE",
"418 -2 LINE",
"418 127 LINE",
"418 127 LINE"
);
}
);
width = 458;
}
);
leftKerningGroup = i;
note = x;
rightKerningGroup = k;
unicode = 0078;
},
{
glyphname = y;
layers = (
{
layerId = "C54D4A6B-8A54-4623-BEBE-775047E05935";
paths = (
{
closed = 1;
nodes = (
"281 500 LINE",
"281 187 LINE SMOOTH",
"281 172.333 OFFCURVE",
"275.833 159.833 OFFCURVE",
"265.5 149.5 CURVE SMOOTH",
"255.167 139.167 OFFCURVE",
"242.667 134 OFFCURVE",
"228 134 CURVE SMOOTH",
"213.333 134 OFFCURVE",
"201 139.167 OFFCURVE",
"191 149.5 CURVE SMOOTH",
"181 159.833 OFFCURVE",
"176 172.333 OFFCURVE",
"176 187 CURVE SMOOTH",
"176 496 LINE",
"40 496 LINE",
"40 187 LINE SMOOTH",
"40 135 OFFCURVE",
"58.333 90.667 OFFCURVE",
"95 54 CURVE SMOOTH",
"131.667 17.333 OFFCURVE",
"176 -1 OFFCURVE",
"228 -1 CURVE SMOOTH",
"247.333 -1 OFFCURVE",
"265 1.333 OFFCURVE",
"281 6 CURVE",
"281 -82 LINE SMOOTH",
"281 -96.667 OFFCURVE",
"275.833 -109.167 OFFCURVE",
"265.5 -119.5 CURVE SMOOTH",
"255.167 -129.833 OFFCURVE",
"242.667 -135 OFFCURVE",
"228 -135 CURVE SMOOTH",
"213.333 -135 OFFCURVE",
"201 -129.833 OFFCURVE",
"191 -119.5 CURVE SMOOTH",
"181 -109.167 OFFCURVE",
"176 -96.667 OFFCURVE",
"176 -82 CURVE",
"40 -82 LINE",
"40 -134 OFFCURVE",
"58.333 -178.5 OFFCURVE",
"95 -215.5 CURVE SMOOTH",
"131.667 -252.5 OFFCURVE",
"176 -271 OFFCURVE",
"228 -271 CURVE SMOOTH",
"280 -271 OFFCURVE",
"324.5 -252.5 OFFCURVE",
"361.5 -215.5 CURVE SMOOTH",
"398.5 -178.5 OFFCURVE",
"417 -134 OFFCURVE",
"417 -82 CURVE SMOOTH",
"417 500 LINE",
"281 500 LINE"
);
}
);
width = 457;
}
);
leftKerningGroup = G;
note = y;
rightKerningGroup = D;
unicode = 0079;
},
{
glyphname = z;
layers = (
{
layerId = "C54D4A6B-8A54-4623-BEBE-775047E05935";
paths = (
{
closed = 1;
nodes = (
"471 361 LINE",
"472 496 LINE",
"40 496 LINE",
"40 361 LINE",
"284 361 LINE",
"41 133 LINE",
"40 133 LINE",
"40 -2 LINE",
"472 -2 LINE",
"472 133 LINE",
"227 133 LINE",
"471 361 LINE"
);
}
);
width = 512;
}
);
leftKerningGroup = i;
note = z;
rightKerningGroup = a;
unicode = 007A;
},
{
glyphname = zero;
layers = (
{
layerId = "C54D4A6B-8A54-4623-BEBE-775047E05935";
paths = (
{
closed = 1;
nodes = (
"541 245 LINE",
"542 459 LINE",
"541.333 527.667 OFFCURVE",
"516.667 586.333 OFFCURVE",
"468 635 CURVE SMOOTH",
"419.333 683.667 OFFCURVE",
"360.333 708 OFFCURVE",
"291 708 CURVE SMOOTH",
"221.667 708 OFFCURVE",
"162.5 683.667 OFFCURVE",
"113.5 635 CURVE SMOOTH",
"64.5 586.333 OFFCURVE",
"40 527.333 OFFCURVE",
"40 458 CURVE SMOOTH",
"40 250 LINE SMOOTH",
"40 180.667 OFFCURVE",
"64.5 121.667 OFFCURVE",
"113.5 73 CURVE SMOOTH",
"162.5 24.333 OFFCURVE",
"221.667 0 OFFCURVE",
"291 0 CURVE SMOOTH",
"359 0 OFFCURVE",
"417.333 23.833 OFFCURVE",
"466 71.5 CURVE SMOOTH",
"514.667 119.167 OFFCURVE",
"539.667 177 OFFCURVE",
"541 245 CURVE"
);
},
{
closed = 1;
nodes = (
"259 135 OFFCURVE",
"231.833 146.333 OFFCURVE",
"209.5 169 CURVE SMOOTH",
"187.167 191.667 OFFCURVE",
"176 219 OFFCURVE",
"176 251 CURVE SMOOTH",
"176 458 LINE SMOOTH",
"176 489.333 OFFCURVE",
"187.167 516.333 OFFCURVE",
"209.5 539 CURVE SMOOTH",
"231.833 561.667 OFFCURVE",
"259 573 OFFCURVE",
"291 573 CURVE SMOOTH",
"322.333 573 OFFCURVE",
"349.333 561.667 OFFCURVE",
"372 539 CURVE SMOOTH",
"394.667 516.333 OFFCURVE",
"406 489.333 OFFCURVE",
"406 458 CURVE SMOOTH",
"406 250 LINE SMOOTH",
"406 218.667 OFFCURVE",
"394.667 191.667 OFFCURVE",
"372 169 CURVE SMOOTH",
"349.333 146.333 OFFCURVE",
"322.333 135 OFFCURVE",
"291 135 CURVE SMOOTH",
"291 135 LINE SMOOTH"
);
}
);
width = 582;
}
);
note = zero;
unicode = 0030;
},
{
glyphname = one;
layers = (
{
layerId = "C54D4A6B-8A54-4623-BEBE-775047E05935";
paths = (
{
closed = 1;
nodes = (
"278 -2 LINE",
"277 572 LINE",
"277 708 LINE",
"40 708 LINE",
"40 572 LINE",
"141 572 LINE",
"142 -2 LINE",
"278 -2 LINE"
);
}
);
width = 318;
}
);
note = one;
unicode = 0031;
},
{
glyphname = two;
layers = (
{
layerId = "C54D4A6B-8A54-4623-BEBE-775047E05935";
paths = (
{
closed = 1;
nodes = (
"542 136 LINE",
"184 135 LINE",
"209.333 153.667 OFFCURVE",
"245.333 178 OFFCURVE",
"292 208 CURVE SMOOTH",
"310 219.333 OFFCURVE",
"331.833 232.167 OFFCURVE",
"357.5 246.5 CURVE SMOOTH",
"383.167 260.833 OFFCURVE",
"403.5 272.333 OFFCURVE",
"418.5 281 CURVE SMOOTH",
"433.5 289.667 OFFCURVE",
"450 300.5 OFFCURVE",
"468 313.5 CURVE SMOOTH",
"486 326.5 OFFCURVE",
"499.667 339.167 OFFCURVE",
"509 351.5 CURVE SMOOTH",
"518.333 363.833 OFFCURVE",
"526.167 379.167 OFFCURVE",
"532.5 397.5 CURVE SMOOTH",
"538.833 415.833 OFFCURVE",
"542 436 OFFCURVE",
"542 458 CURVE SMOOTH",
"542 526.667 OFFCURVE",
"517.5 585.5 OFFCURVE",
"468.5 634.5 CURVE SMOOTH",
"419.5 683.5 OFFCURVE",
"360.333 708 OFFCURVE",
"291 708 CURVE SMOOTH",
"221.667 708 OFFCURVE",
"162.5 683.5 OFFCURVE",
"113.5 634.5 CURVE SMOOTH",
"64.5 585.5 OFFCURVE",
"40 526.667 OFFCURVE",
"40 458 CURVE",
"176 458 LINE",
"176 489.333 OFFCURVE",
"187.333 516.333 OFFCURVE",
"210 539 CURVE SMOOTH",
"232.667 561.667 OFFCURVE",
"259.667 573 OFFCURVE",
"291 573 CURVE SMOOTH",
"322.333 573 OFFCURVE",
"349.333 561.667 OFFCURVE",
"372 539 CURVE SMOOTH",
"394.667 516.333 OFFCURVE",
"406 489.333 OFFCURVE",
"406 458 CURVE SMOOTH",
"406 446 OFFCURVE",
"404.5 435.5 OFFCURVE",
"401.5 426.5 CURVE SMOOTH",
"398.5 417.5 OFFCURVE",
"392.333 408.833 OFFCURVE",
"383 400.5 CURVE SMOOTH",
"373.667 392.167 OFFCURVE",
"366.167 386 OFFCURVE",
"360.5 382 CURVE SMOOTH",
"354.833 378 OFFCURVE",
"343.333 371.333 OFFCURVE",
"326 362 CURVE SMOOTH",
"308.667 352.667 OFFCURVE",
"297 346.333 OFFCURVE",
"291 343 CURVE SMOOTH",
"277.667 335.667 OFFCURVE",
"258 325 OFFCURVE",
"232 311 CURVE SMOOTH",
"206 297 OFFCURVE",
"186 286 OFFCURVE",
"172 278 CURVE SMOOTH",
"158 270 OFFCURVE",
"141.333 258.833 OFFCURVE",
"122 244.5 CURVE SMOOTH",
"102.667 230.167 OFFCURVE",
"88 216.5 OFFCURVE",
"78 203.5 CURVE SMOOTH",
"68 190.5 OFFCURVE",
"59.167 174.333 OFFCURVE",
"51.5 155 CURVE SMOOTH",
"43.833 135.667 OFFCURVE",
"40 115 OFFCURVE",
"40 93 CURVE SMOOTH",
"40 -1 LINE",
"543 0 LINE",
"542 136 LINE"
);
}
);
width = 583;
}
);
note = two;
unicode = 0032;
},
{
glyphname = three;
layers = (
{
layerId = "C54D4A6B-8A54-4623-BEBE-775047E05935";
paths = (
{
closed = 1;
nodes = (
"518 387.667 OFFCURVE",
"527 417 OFFCURVE",
"527 449 CURVE SMOOTH",
"527 473 LINE",
"525.667 538.333 OFFCURVE",
"501.667 593.833 OFFCURVE",
"455 639.5 CURVE SMOOTH",
"408.333 685.167 OFFCURVE",
"352.333 708 OFFCURVE",
"287 708 CURVE SMOOTH",
"220.333 708 OFFCURVE",
"163.667 684.667 OFFCURVE",
"117 638 CURVE SMOOTH",
"70.333 591.333 OFFCURVE",
"47 534.667 OFFCURVE",
"47 468 CURVE",
"183 468 LINE",
"183 497.333 OFFCURVE",
"193.167 522.167 OFFCURVE",
"213.5 542.5 CURVE SMOOTH",
"233.833 562.833 OFFCURVE",
"258.333 573 OFFCURVE",
"287 573 CURVE SMOOTH",
"315.667 573 OFFCURVE",
"340.167 562.833 OFFCURVE",
"360.5 542.5 CURVE SMOOTH",
"380.833 522.167 OFFCURVE",
"391 497.333 OFFCURVE",
"391 468 CURVE SMOOTH",
"391 426 OFFCURVE",
"380 405 OFFCURVE",
"358 405 CURVE SMOOTH",
"280 405 LINE",
"280 297 LINE",
"372 297 LINE SMOOTH",
"380.667 297 OFFCURVE",
"388.5 291.833 OFFCURVE",
"395.5 281.5 CURVE SMOOTH",
"402.5 271.167 OFFCURVE",
"406 260.667 OFFCURVE",
"406 250 CURVE SMOOTH",
"406 218.667 OFFCURVE",
"394.667 191.667 OFFCURVE",
"372 169 CURVE SMOOTH",
"349.333 146.333 OFFCURVE",
"322.333 135 OFFCURVE",
"291 135 CURVE SMOOTH",
"259.667 135 OFFCURVE",
"232.667 146.333 OFFCURVE",
"210 169 CURVE SMOOTH",
"187.333 191.667 OFFCURVE",
"176 218.667 OFFCURVE",
"176 250 CURVE",
"40 250 LINE",
"40 181.333 OFFCURVE",
"64.5 122.5 OFFCURVE",
"113.5 73.5 CURVE SMOOTH",
"162.5 24.5 OFFCURVE",
"221.667 0 OFFCURVE",
"291 0 CURVE SMOOTH",
"360.333 0 OFFCURVE",
"419.5 24.5 OFFCURVE",
"468.5 73.5 CURVE SMOOTH",
"517.5 122.5 OFFCURVE",
"542 181.333 OFFCURVE",
"542 250 CURVE SMOOTH",
"542 292 OFFCURVE",
"528 329 OFFCURVE",
"500 361 CURVE",
"500 361 LINE"
);
}
);
width = 582;
}
);
note = three;
unicode = 0033;
},
{
glyphname = four;
layers = (
{
layerId = "C54D4A6B-8A54-4623-BEBE-775047E05935";
paths = (
{
closed = 1;
nodes = (
"320 -2 LINE",
"456 -2 LINE",
"455 708 LINE",
"319 708 LINE",
"319 419 LINE",
"176 419 LINE",
"176 708 LINE",
"40 708 LINE",
"40 283 LINE",
"319 283 LINE",
"320 -2 LINE"
);
}
);
width = 496;
}
);
note = four;
unicode = 0034;
},
{
glyphname = five;
layers = (
{
layerId = "C54D4A6B-8A54-4623-BEBE-775047E05935";
paths = (
{
closed = 1;
nodes = (
"291 491 LINE",
"291 492 LINE",
"224 492 LINE",
"224 564 LINE",
"525 564 LINE",
"525 699 LINE",
"88 700 LINE",
"88 356 LINE",
"291 356 LINE SMOOTH",
"323 356 OFFCURVE",
"350.333 344.833 OFFCURVE",
"373 322.5 CURVE SMOOTH",
"395.667 300.167 OFFCURVE",
"407 273.333 OFFCURVE",
"407 242 CURVE",
"406 242 LINE",
"406 210 OFFCURVE",
"394.667 182.667 OFFCURVE",
"372 160 CURVE SMOOTH",
"349.333 137.333 OFFCURVE",
"322.333 126 OFFCURVE",
"291 126 CURVE SMOOTH",
"259.667 126 OFFCURVE",
"232.667 137.333 OFFCURVE",
"210 160 CURVE SMOOTH",
"187.333 182.667 OFFCURVE",
"176 210 OFFCURVE",
"176 242 CURVE",
"40 242 LINE",
"40 172.667 OFFCURVE",
"64.5 113.5 OFFCURVE",
"113.5 64.5 CURVE SMOOTH",
"162.5 15.5 OFFCURVE",
"221.667 -9 OFFCURVE",
"291 -9 CURVE SMOOTH",
"360.333 -9 OFFCURVE",
"419.5 15.5 OFFCURVE",
"468.5 64.5 CURVE SMOOTH",
"517.5 113.5 OFFCURVE",
"542 172.667 OFFCURVE",
"542 242 CURVE",
"543 242 LINE",
"543 310.667 OFFCURVE",
"518.333 369.333 OFFCURVE",
"469 418 CURVE SMOOTH",
"419.667 466.667 OFFCURVE",
"360.333 491 OFFCURVE",
"291 491 CURVE SMOOTH"
);
}
);
width = 583;
}
);
note = five;
unicode = 0035;
},
{
glyphname = six;
layers = (
{
layerId = "C54D4A6B-8A54-4623-BEBE-775047E05935";
paths = (
{
closed = 1;
nodes = (
"251 499 OFFCURVE",
"213 490 OFFCURVE",
"177 472 CURVE",
"180.333 500 OFFCURVE",
"192.833 523.667 OFFCURVE",
"214.5 543 CURVE SMOOTH",
"236.167 562.333 OFFCURVE",
"261.333 572 OFFCURVE",
"290 572 CURVE",
"290 571 LINE",
"322 571 OFFCURVE",
"349 563 OFFCURVE",
"371 547 CURVE SMOOTH",
"393 531 OFFCURVE",
"404 514.667 OFFCURVE",
"404 498 CURVE",
"540 498 LINE",
"540 554.667 OFFCURVE",
"515.333 603.667 OFFCURVE",
"466 645 CURVE SMOOTH",
"416.667 686.333 OFFCURVE",
"358 707 OFFCURVE",
"290 707 CURVE SMOOTH",
"224.667 707 OFFCURVE",
"168.167 684.833 OFFCURVE",
"120.5 640.5 CURVE SMOOTH",
"72.833 596.167 OFFCURVE",
"46.333 542 OFFCURVE",
"41 478 CURVE",
"40 478 LINE",
"40 249 LINE SMOOTH",
"40 180.333 OFFCURVE",
"64.5 121.5 OFFCURVE",
"113.5 72.5 CURVE SMOOTH",
"162.5 23.5 OFFCURVE",
"221.667 -1 OFFCURVE",
"291 -1 CURVE SMOOTH",
"360.333 -1 OFFCURVE",
"419.5 23.5 OFFCURVE",
"468.5 72.5 CURVE SMOOTH",
"517.5 121.5 OFFCURVE",
"542 180.333 OFFCURVE",
"542 249 CURVE",
"543 249 LINE",
"543 317.667 OFFCURVE",
"518.333 376.5 OFFCURVE",
"469 425.5 CURVE SMOOTH",
"419.667 474.5 OFFCURVE",
"360.333 499 OFFCURVE",
"291 499 CURVE SMOOTH",
"291 499 LINE SMOOTH"
);
},
{
closed = 1;
nodes = (
"406 217.667 OFFCURVE",
"394.667 190.667 OFFCURVE",
"372 168 CURVE SMOOTH",
"349.333 145.333 OFFCURVE",
"322.333 134 OFFCURVE",
"291 134 CURVE SMOOTH",
"259.667 134 OFFCURVE",
"232.667 145.333 OFFCURVE",
"210 168 CURVE SMOOTH",
"187.333 190.667 OFFCURVE",
"176 217.667 OFFCURVE",
"176 249 CURVE SMOOTH",
"176 280.333 OFFCURVE",
"187.333 307.333 OFFCURVE",
"210 330 CURVE SMOOTH",
"232.667 352.667 OFFCURVE",
"259.667 364 OFFCURVE",
"291 364 CURVE SMOOTH",
"323 364 OFFCURVE",
"350.333 352.667 OFFCURVE",
"373 330 CURVE SMOOTH",
"395.667 307.333 OFFCURVE",
"407 280.333 OFFCURVE",
"407 249 CURVE",
"406 249 LINE",
"406 249 LINE"
);
}
);
width = 583;
}
);
note = six;
unicode = 0036;
},
{
glyphname = seven;
layers = (
{
layerId = "C54D4A6B-8A54-4623-BEBE-775047E05935";
paths = (
{
closed = 1;
nodes = (
"464 706 LINE",
"40 707 LINE",
"40 571 LINE",
"283 571 LINE",
"89 -4 LINE",
"225 -4 LINE",
"464 706 LINE"
);
}
);
width = 504;
}
);
note = seven;
unicode = 0037;
},
{
glyphname = eight;
layers = (
{
layerId = "C54D4A6B-8A54-4623-BEBE-775047E05935";
paths = (
{
closed = 1;
nodes = (
"523 562.333 OFFCURVE",
"501.833 611.667 OFFCURVE",
"459.5 647 CURVE SMOOTH",
"417.167 682.333 OFFCURVE",
"360.667 700 OFFCURVE",
"290 700 CURVE SMOOTH",
"220 700 OFFCURVE",
"164.167 682.333 OFFCURVE",
"122.5 647 CURVE SMOOTH",
"80.833 611.667 OFFCURVE",
"60 562.667 OFFCURVE",
"60 500 CURVE SMOOTH",
"60 474 OFFCURVE",
"62.5 451.667 OFFCURVE",
"67.5 433 CURVE SMOOTH",
"72.5 414.333 OFFCURVE",
"77.333 401.5 OFFCURVE",
"82 394.5 CURVE SMOOTH",
"86.667 387.5 OFFCURVE",
"93.833 379.167 OFFCURVE",
"103.5 369.5 CURVE SMOOTH",
"113.167 359.833 OFFCURVE",
"119.333 353.333 OFFCURVE",
"122 350 CURVE",
"118.667 346 OFFCURVE",
"111.5 339 OFFCURVE",
"100.5 329 CURVE SMOOTH",
"89.5 319 OFFCURVE",
"80.167 309.667 OFFCURVE",
"72.5 301 CURVE SMOOTH",
"64.833 292.333 OFFCURVE",
"57.5 278.333 OFFCURVE",
"50.5 259 CURVE SMOOTH",
"43.5 239.667 OFFCURVE",
"40 217.667 OFFCURVE",
"40 193 CURVE SMOOTH",
"40 127.667 OFFCURVE",
"63.167 78.833 OFFCURVE",
"109.5 46.5 CURVE SMOOTH",
"155.833 14.167 OFFCURVE",
"216 -2 OFFCURVE",
"290 -2 CURVE SMOOTH",
"363.333 -2 OFFCURVE",
"423.5 16 OFFCURVE",
"470.5 52 CURVE SMOOTH",
"517.5 88 OFFCURVE",
"541 139 OFFCURVE",
"541 205 CURVE SMOOTH",
"541 233.667 OFFCURVE",
"536.667 257 OFFCURVE",
"528 275 CURVE SMOOTH",
"519.333 293 OFFCURVE",
"506.5 309.5 OFFCURVE",
"489.5 324.5 CURVE SMOOTH",
"472.5 339.5 OFFCURVE",
"463.333 348 OFFCURVE",
"462 350 CURVE",
"462.667 350.667 OFFCURVE",
"466 354.833 OFFCURVE",
"472 362.5 CURVE SMOOTH",
"478 370.167 OFFCURVE",
"482 375.333 OFFCURVE",
"484 378 CURVE SMOOTH",
"486 380.667 OFFCURVE",
"489.667 386 OFFCURVE",
"495 394 CURVE SMOOTH",
"500.333 402 OFFCURVE",
"504.167 409 OFFCURVE",
"506.5 415 CURVE SMOOTH",
"508.833 421 OFFCURVE",
"511.5 428.667 OFFCURVE",
"514.5 438 CURVE SMOOTH",
"517.5 447.333 OFFCURVE",
"519.667 457 OFFCURVE",
"521 467 CURVE SMOOTH",
"522.333 477 OFFCURVE",
"523 487.667 OFFCURVE",
"523 499 CURVE",
"523 499 LINE"
);
},
{
closed = 1;
nodes = (
"318.667 586 OFFCURVE",
"342.167 578.167 OFFCURVE",
"360.5 562.5 CURVE SMOOTH",
"378.833 546.833 OFFCURVE",
"388 526 OFFCURVE",
"388 500 CURVE SMOOTH",
"388 476 OFFCURVE",
"379.5 455.5 OFFCURVE",
"362.5 438.5 CURVE SMOOTH",
"345.5 421.5 OFFCURVE",
"322.333 413 OFFCURVE",
"293 413 CURVE SMOOTH",
"261 413 OFFCURVE",
"236 420.833 OFFCURVE",
"218 436.5 CURVE SMOOTH",
"200 452.167 OFFCURVE",
"191 473.333 OFFCURVE",
"191 500 CURVE SMOOTH",
"191 524.667 OFFCURVE",
"200 545.167 OFFCURVE",
"218 561.5 CURVE SMOOTH",
"236 577.833 OFFCURVE",
"260 586 OFFCURVE",
"290 586 CURVE",
"290 586 LINE"
);
},
{
closed = 1;
nodes = (
"318.667 300 OFFCURVE",
"342.167 292.167 OFFCURVE",
"360.5 276.5 CURVE SMOOTH",
"378.833 260.833 OFFCURVE",
"388 240 OFFCURVE",
"388 214 CURVE SMOOTH",
"388 190 OFFCURVE",
"379.5 169.5 OFFCURVE",
"362.5 152.5 CURVE SMOOTH",
"345.5 135.5 OFFCURVE",
"322.333 127 OFFCURVE",
"293 127 CURVE SMOOTH",
"261 127 OFFCURVE",
"236 134.833 OFFCURVE",
"218 150.5 CURVE SMOOTH",
"200 166.167 OFFCURVE",
"191 187.333 OFFCURVE",
"191 214 CURVE SMOOTH",
"191 238.667 OFFCURVE",
"200 259.167 OFFCURVE",
"218 275.5 CURVE SMOOTH",
"236 291.833 OFFCURVE",
"260 300 OFFCURVE",
"290 300 CURVE",
"290 300 LINE"
);
}
);
width = 581;
}
);
note = eight;
unicode = 0038;
},
{
glyphname = nine;
layers = (
{
layerId = "C54D4A6B-8A54-4623-BEBE-775047E05935";
paths = (
{
closed = 1;
nodes = (
"543 224 LINE",
"543 454 LINE SMOOTH",
"543 522.667 OFFCURVE",
"518.5 581.5 OFFCURVE",
"469.5 630.5 CURVE SMOOTH",
"420.5 679.5 OFFCURVE",
"361.333 704 OFFCURVE",
"292 704 CURVE SMOOTH",
"222.667 704 OFFCURVE",
"163.5 679.5 OFFCURVE",
"114.5 630.5 CURVE SMOOTH",
"65.5 581.5 OFFCURVE",
"41 522.333 OFFCURVE",
"41 453 CURVE",
"40 453 LINE",
"40 384.333 OFFCURVE",
"64.667 325.5 OFFCURVE",
"114 276.5 CURVE SMOOTH",
"163.333 227.5 OFFCURVE",
"222.667 203 OFFCURVE",
"292 203 CURVE SMOOTH",
"332.667 203 OFFCURVE",
"370.667 212.333 OFFCURVE",
"406 231 CURVE",
"402.667 202.333 OFFCURVE",
"390.167 178.5 OFFCURVE",
"368.5 159.5 CURVE SMOOTH",
"346.833 140.5 OFFCURVE",
"321.667 131 OFFCURVE",
"293 131 CURVE SMOOTH",
"261 131 OFFCURVE",
"234 139.167 OFFCURVE",
"212 155.5 CURVE SMOOTH",
"190 171.833 OFFCURVE",
"179 188 OFFCURVE",
"179 204 CURVE",
"43 204 LINE",
"43 147.333 OFFCURVE",
"67.667 98.5 OFFCURVE",
"117 57.5 CURVE SMOOTH",
"166.333 16.5 OFFCURVE",
"225 -4 OFFCURVE",
"293 -4 CURVE",
"293 -5 LINE",
"358.333 -5 OFFCURVE",
"414.833 17.167 OFFCURVE",
"462.5 61.5 CURVE SMOOTH",
"510.167 105.833 OFFCURVE",
"536.667 160 OFFCURVE",
"542 224 CURVE",
"543 224 LINE"
);
},
{
closed = 1;
nodes = (
"407 422 OFFCURVE",
"395.667 394.833 OFFCURVE",
"373 372.5 CURVE SMOOTH",
"350.333 350.167 OFFCURVE",
"323.333 339 OFFCURVE",
"292 339 CURVE SMOOTH",
"260 339 OFFCURVE",
"232.667 350.167 OFFCURVE",
"210 372.5 CURVE SMOOTH",
"187.333 394.833 OFFCURVE",
"176 421.667 OFFCURVE",
"176 453 CURVE SMOOTH",
"176.667 485 OFFCURVE",
"188.333 512.333 OFFCURVE",
"211 535 CURVE SMOOTH",
"233.667 557.667 OFFCURVE",
"260.667 569 OFFCURVE",
"292 569 CURVE SMOOTH",
"323.333 569 OFFCURVE",
"350.333 557.667 OFFCURVE",
"373 535 CURVE SMOOTH",
"395.667 512.333 OFFCURVE",
"407 485.333 OFFCURVE",
"407 454 CURVE",
"407 454 LINE"
);
}
);
width = 583;
}
);
note = nine;
unicode = 0039;
},
{
glyphname = period;
layers = (
{
layerId = "C54D4A6B-8A54-4623-BEBE-775047E05935";
paths = (
{
closed = 1;
nodes = (
"130.833 8.833 OFFCURVE",
"116.667 3 OFFCURVE",
"100 3 CURVE SMOOTH",
"83.333 3 OFFCURVE",
"69.167 8.833 OFFCURVE",
"57.5 20.5 CURVE SMOOTH",
"45.833 32.167 OFFCURVE",
"40 46.333 OFFCURVE",
"40 63 CURVE SMOOTH",
"40 79.667 OFFCURVE",
"45.833 93.833 OFFCURVE",
"57.5 105.5 CURVE SMOOTH",
"69.167 117.167 OFFCURVE",
"83.333 123 OFFCURVE",
"100 123 CURVE SMOOTH",
"116.667 123 OFFCURVE",
"130.833 117.167 OFFCURVE",
"142.5 105.5 CURVE SMOOTH",
"154.167 93.833 OFFCURVE",
"160 79.667 OFFCURVE",
"160 63 CURVE SMOOTH",
"160 46.333 OFFCURVE",
"154.167 32.167 OFFCURVE",
"142.5 20.5 CURVE",
"142.5 20.5 LINE"
);
}
);
width = 200;
}
);
note = period;
unicode = 002E;
},
{
glyphname = comma;
layers = (
{
layerId = "C54D4A6B-8A54-4623-BEBE-775047E05935";
paths = (
{
closed = 1;
nodes = (
"160 82.667 OFFCURVE",
"154.167 96.833 OFFCURVE",
"142.5 108.5 CURVE SMOOTH",
"130.833 120.167 OFFCURVE",
"116.667 126 OFFCURVE",
"100 126 CURVE SMOOTH",
"83.333 126 OFFCURVE",
"69.167 120.167 OFFCURVE",
"57.5 108.5 CURVE SMOOTH",
"45.833 96.833 OFFCURVE",
"40 82.667 OFFCURVE",
"40 66 CURVE SMOOTH",
"40 49.333 OFFCURVE",
"45.833 35.167 OFFCURVE",
"57.5 23.5 CURVE SMOOTH",
"69.167 11.833 OFFCURVE",
"83.333 6 OFFCURVE",
"100 6 CURVE",
"100 -34 LINE",
"114 -28 LINE SMOOTH",
"123.333 -24 OFFCURVE",
"133 -14.167 OFFCURVE",
"143 1.5 CURVE SMOOTH",
"153 17.167 OFFCURVE",
"158.667 36.667 OFFCURVE",
"160 60 CURVE",
"160 66 LINE",
"160 66 LINE"
);
}
);
width = 200;
}
);
note = comma;
unicode = 002C;
},
{
glyphname = exclam;
layers = (
{
layerId = "C54D4A6B-8A54-4623-BEBE-775047E05935";
paths = (
{
closed = 1;
nodes = (
"40 700 LINE",
"40 204 LINE",
"176 204 LINE",
"176 700 LINE",
"40 700 LINE"
);
},
{
closed = 1;
nodes = (
"40 0 LINE",
"176 0 LINE",
"176 136 LINE",
"40 136 LINE",
"40 0 LINE"
);
}
);
width = 216;
}
);
leftKerningGroup = exclam;
note = exclam;
rightKerningGroup = exclam;
unicode = 0021;
},
{
glyphname = question;
lastChange = "2023-08-01 04:18:52 +0000";
layers = (
{
anchors = (
{
name = "new anchor";
position = "{242, 406}";
}
);
layerId = "C54D4A6B-8A54-4623-BEBE-775047E05935";
paths = (
{
closed = 1;
nodes = (
"188 0 LINE",
"324 0 LINE",
"324 136 LINE",
"188 136 LINE",
"188 0 LINE"
);
},
{
closed = 1;
nodes = (
"324 204 LINE",
"188 204 LINE",
"189 287 LINE",
"190 373 OFFCURVE",
"228 412 OFFCURVE",
"272 450 CURVE SMOOTH",
"298 473 OFFCURVE",
"319 488 OFFCURVE",
"319 519 CURVE SMOOTH",
"319 538 OFFCURVE",
"313 554 OFFCURVE",
"301 568 CURVE SMOOTH",
"289 582 OFFCURVE",
"269 589 OFFCURVE",
"242 589 CURVE SMOOTH",
"190 589 OFFCURVE",
"164 559 OFFCURVE",
"164 500 CURVE",
"36 500 LINE",
"36 530 OFFCURVE",
"43 561 OFFCURVE",
"57 593 CURVE SMOOTH",
"71 625 OFFCURVE",
"95 654 OFFCURVE",
"128 679 CURVE SMOOTH",
"161 704 OFFCURVE",
"199 717 OFFCURVE",
"242 717 CURVE SMOOTH",
"303 717 OFFCURVE",
"353 700 OFFCURVE",
"394 666 CURVE SMOOTH",
"435 631 OFFCURVE",
"455 584 OFFCURVE",
"455 525 CURVE SMOOTH",
"455 479 OFFCURVE",
"441 428 OFFCURVE",
"386 386 CURVE SMOOTH",
"342 353 OFFCURVE",
"326 300 OFFCURVE",
"324 256 CURVE",
"324 204 LINE",
"188 204 LINE"
);
}
);
width = 513;
}
);
leftKerningGroup = S;
note = A.001;
rightKerningGroup = S;
unicode = 003F;
},
{
glyphname = slash;
lastChange = "2024-07-09 06:22:15 +0000";
layers = (
{
layerId = "C54D4A6B-8A54-4623-BEBE-775047E05935";
paths = (
{
closed = 1;
nodes = (
"197 -121 LINE",
"61 -121 LINE",
"274 764 LINE",
"410 764 LINE",
"197 -121 LINE"
);
}
);
width = 480;
}
);
rightKerningGroup = exclam;
unicode = 002F;
},
{
glyphname = hyphen;
layers = (
{
layerId = "C54D4A6B-8A54-4623-BEBE-775047E05935";
paths = (
{
closed = 1;
nodes = (
"278 182 LINE",
"40 182 LINE",
"40 318 LINE",
"278 318 LINE",
"278 182 LINE"
);
}
);
width = 318;
}
);
note = hyphen;
unicode = 002D;
},
{
glyphname = quoteleft;
layers = (
{
layerId = "C54D4A6B-8A54-4623-BEBE-775047E05935";
paths = (
{
closed = 1;
nodes = (
"230 700 LINE",
"230 500 LINE",
"366 500 LINE",
"366 700 LINE",
"230 700 LINE"
);
}
);
width = 600;
}
);
note = quoteleft;
unicode = 2018;
},
{
glyphname = quoteright;
layers = (
{
layerId = "C54D4A6B-8A54-4623-BEBE-775047E05935";
paths = (
{
closed = 1;
nodes = (
"230 700 LINE",
"230 500 LINE",
"366 500 LINE",
"366 700 LINE",
"230 700 LINE"
);
}
);
width = 600;
}
);
note = quoteright;
unicode = 2019;
},
{
glyphname = quotedbl;
layers = (
{
layerId = "C54D4A6B-8A54-4623-BEBE-775047E05935";
paths = (
{
closed = 1;
nodes = (
"0 745 LINE",
"0 575 LINE",
"136 575 LINE",
"136 745 LINE",
"0 745 LINE"
);
},
{
closed = 1;
nodes = (
"166 745 LINE",
"166 575 LINE",
"302 575 LINE",
"302 745 LINE",
"166 745 LINE"
);
}
);
width = 302;
}
);
note = quotedbl;
unicode = 0022;
},
{
glyphname = quotesingle;
layers = (
{
layerId = "C54D4A6B-8A54-4623-BEBE-775047E05935";
paths = (
{
closed = 1;
nodes = (
"0 744 LINE",
"0 575 LINE",
"136 575 LINE",
"136 744 LINE",
"0 744 LINE"
);
}
);
width = 136;
}
);
leftKerningGroup = quotesingle;
note = quotesingle;
rightKerningGroup = quotesingle;
unicode = 0027;
},
